solid axle
   facet normal -2.449294e-16 -1.224647e-16 -1.000000e+00
      outer loop
         vertex 9.990340e+01 -2.672500e+01 -7.540000e+01
         vertex 1.074034e+02 -2.672500e+01 -7.540000e+01
         vertex 1.074034e+02 -2.852500e+01 -7.540000e+01
      endloop
   endfacet
   facet normal -2.449294e-16 -1.224647e-16 -1.000000e+00
      outer loop
         vertex 9.990340e+01 -2.672500e+01 -7.540000e+01
         vertex 1.074034e+02 -2.852500e+01 -7.540000e+01
         vertex 9.990340e+01 -2.852500e+01 -7.540000e+01
      endloop
   endfacet
   facet normal 2.449294e-16 1.224647e-16 1.000000e+00
      outer loop
         vertex 9.990340e+01 -2.852500e+01 -7.360000e+01
         vertex 1.074034e+02 -2.852500e+01 -7.360000e+01
         vertex 1.074034e+02 -2.672500e+01 -7.360000e+01
      endloop
   endfacet
   facet normal 2.449294e-16 1.224647e-16 1.000000e+00
      outer loop
         vertex 9.990340e+01 -2.852500e+01 -7.360000e+01
         vertex 1.074034e+02 -2.672500e+01 -7.360000e+01
         vertex 9.990340e+01 -2.672500e+01 -7.360000e+01
      endloop
   endfacet
   facet normal -1.000000e+00 -6.123234e-17 2.449294e-16
      outer loop
         vertex 9.990340e+01 -2.852500e+01 -7.540000e+01
         vertex 9.990340e+01 -2.852500e+01 -7.360000e+01
         vertex 9.990340e+01 -2.672500e+01 -7.360000e+01
      endloop
   endfacet
   facet normal -1.000000e+00 -6.123234e-17 2.449294e-16
      outer loop
         vertex 9.990340e+01 -2.852500e+01 -7.540000e+01
         vertex 9.990340e+01 -2.672500e+01 -7.360000e+01
         vertex 9.990340e+01 -2.672500e+01 -7.540000e+01
      endloop
   endfacet
   facet normal -1.224647e-16 1.000000e+00 -1.224647e-16
      outer loop
         vertex 9.990340e+01 -2.672500e+01 -7.540000e+01
         vertex 9.990340e+01 -2.672500e+01 -7.360000e+01
         vertex 1.074034e+02 -2.672500e+01 -7.360000e+01
      endloop
   endfacet
   facet normal -1.224647e-16 1.000000e+00 -1.224647e-16
      outer loop
         vertex 9.990340e+01 -2.672500e+01 -7.540000e+01
         vertex 1.074034e+02 -2.672500e+01 -7.360000e+01
         vertex 1.074034e+02 -2.672500e+01 -7.540000e+01
      endloop
   endfacet
   facet normal 1.000000e+00 -6.123234e-17 -2.449294e-16
      outer loop
         vertex 1.074034e+02 -2.672500e+01 -7.540000e+01
         vertex 1.074034e+02 -2.672500e+01 -7.360000e+01
         vertex 1.074034e+02 -2.677500e+01 -7.425000e+01
      endloop
   endfacet
   facet normal 1.000000e+00 -6.123234e-17 -2.449294e-16
      outer loop
         vertex 1.074034e+02 -2.672500e+01 -7.540000e+01
         vertex 1.074034e+02 -2.677500e+01 -7.425000e+01
         vertex 1.074034e+02 -2.677500e+01 -7.475000e+01
      endloop
   endfacet
   facet normal 1.000000e+00 -6.123234e-17 -2.449294e-16
      outer loop
         vertex 1.074034e+02 -2.672500e+01 -7.540000e+01
         vertex 1.074034e+02 -2.677500e+01 -7.475000e+01
         vertex 1.074034e+02 -2.737500e+01 -7.475000e+01
      endloop
   endfacet
   facet normal 1.000000e+00 -6.123234e-17 -2.449294e-16
      outer loop
         vertex 1.074034e+02 -2.672500e+01 -7.540000e+01
         vertex 1.074034e+02 -2.737500e+01 -7.475000e+01
         vertex 1.074034e+02 -2.737500e+01 -7.535000e+01
      endloop
   endfacet
   facet normal 1.000000e+00 -6.123234e-17 -2.449294e-16
      outer loop
         vertex 1.074034e+02 -2.672500e+01 -7.540000e+01
         vertex 1.074034e+02 -2.737500e+01 -7.535000e+01
         vertex 1.074034e+02 -2.787500e+01 -7.535000e+01
      endloop
   endfacet
   facet normal 1.000000e+00 -6.123234e-17 -2.449294e-16
      outer loop
         vertex 1.074034e+02 -2.672500e+01 -7.540000e+01
         vertex 1.074034e+02 -2.787500e+01 -7.535000e+01
         vertex 1.074034e+02 -2.852500e+01 -7.540000e+01
      endloop
   endfacet
   facet normal 1.000000e+00 -6.123234e-17 -2.449294e-16
      outer loop
         vertex 1.074034e+02 -2.737500e+01 -7.425000e+01
         vertex 1.074034e+02 -2.677500e+01 -7.425000e+01
         vertex 1.074034e+02 -2.737500e+01 -7.365000e+01
      endloop
   endfacet
   facet normal 1.000000e+00 -6.123234e-17 -2.449294e-16
      outer loop
         vertex 1.074034e+02 -2.677500e+01 -7.425000e+01
         vertex 1.074034e+02 -2.672500e+01 -7.360000e+01
         vertex 1.074034e+02 -2.737500e+01 -7.365000e+01
      endloop
   endfacet
   facet normal 1.000000e+00 -6.123234e-17 -2.449294e-16
      outer loop
         vertex 1.074034e+02 -2.737500e+01 -7.365000e+01
         vertex 1.074034e+02 -2.672500e+01 -7.360000e+01
         vertex 1.074034e+02 -2.787500e+01 -7.365000e+01
      endloop
   endfacet
   facet normal 1.000000e+00 -6.123234e-17 -2.449294e-16
      outer loop
         vertex 1.074034e+02 -2.672500e+01 -7.360000e+01
         vertex 1.074034e+02 -2.852500e+01 -7.360000e+01
         vertex 1.074034e+02 -2.787500e+01 -7.365000e+01
      endloop
   endfacet
   facet normal 1.000000e+00 -6.123234e-17 -2.449294e-16
      outer loop
         vertex 1.074034e+02 -2.787500e+01 -7.365000e+01
         vertex 1.074034e+02 -2.852500e+01 -7.360000e+01
         vertex 1.074034e+02 -2.847500e+01 -7.425000e+01
      endloop
   endfacet
   facet normal 1.000000e+00 -6.123234e-17 -2.449294e-16
      outer loop
         vertex 1.074034e+02 -2.852500e+01 -7.360000e+01
         vertex 1.074034e+02 -2.847500e+01 -7.475000e+01
         vertex 1.074034e+02 -2.847500e+01 -7.425000e+01
      endloop
   endfacet
   facet normal 1.000000e+00 -6.123234e-17 -2.449294e-16
      outer loop
         vertex 1.074034e+02 -2.847500e+01 -7.475000e+01
         vertex 1.074034e+02 -2.852500e+01 -7.360000e+01
         vertex 1.074034e+02 -2.852500e+01 -7.540000e+01
      endloop
   endfacet
   facet normal 1.000000e+00 -6.123234e-17 -2.449294e-16
      outer loop
         vertex 1.074034e+02 -2.847500e+01 -7.475000e+01
         vertex 1.074034e+02 -2.852500e+01 -7.540000e+01
         vertex 1.074034e+02 -2.787500e+01 -7.535000e+01
      endloop
   endfacet
   facet normal 1.000000e+00 -6.123234e-17 -2.449294e-16
      outer loop
         vertex 1.074034e+02 -2.847500e+01 -7.475000e+01
         vertex 1.074034e+02 -2.787500e+01 -7.535000e+01
         vertex 1.074034e+02 -2.787500e+01 -7.475000e+01
      endloop
   endfacet
   facet normal 1.000000e+00 -6.123234e-17 -2.449294e-16
      outer loop
         vertex 1.074034e+02 -2.787500e+01 -7.365000e+01
         vertex 1.074034e+02 -2.847500e+01 -7.425000e+01
         vertex 1.074034e+02 -2.787500e+01 -7.425000e+01
      endloop
   endfacet
   facet normal 4.930381e-32 -1.000000e+00 1.224647e-16
      outer loop
         vertex 1.074034e+02 -2.852500e+01 -7.540000e+01
         vertex 1.074034e+02 -2.852500e+01 -7.360000e+01
         vertex 9.990340e+01 -2.852500e+01 -7.360000e+01
      endloop
   endfacet
   facet normal 4.930381e-32 -1.000000e+00 1.224647e-16
      outer loop
         vertex 1.074034e+02 -2.852500e+01 -7.540000e+01
         vertex 9.990340e+01 -2.852500e+01 -7.360000e+01
         vertex 9.990340e+01 -2.852500e+01 -7.540000e+01
      endloop
   endfacet
   facet normal 2.449294e-16 1.224647e-16 1.000000e+00
      outer loop
         vertex 1.074034e+02 -2.677500e+01 -7.425000e+01
         vertex 1.074034e+02 -2.737500e+01 -7.425000e+01
         vertex 1.094034e+02 -2.737500e+01 -7.425000e+01
      endloop
   endfacet
   facet normal 2.449294e-16 1.224647e-16 1.000000e+00
      outer loop
         vertex 1.074034e+02 -2.677500e+01 -7.425000e+01
         vertex 1.094034e+02 -2.737500e+01 -7.425000e+01
         vertex 1.094034e+02 -2.707500e+01 -7.425000e+01
      endloop
   endfacet
   facet normal 2.449294e-16 1.224647e-16 1.000000e+00
      outer loop
         vertex 1.074034e+02 -2.677500e+01 -7.425000e+01
         vertex 1.094034e+02 -2.707500e+01 -7.425000e+01
         vertex 1.091034e+02 -2.677500e+01 -7.425000e+01
      endloop
   endfacet
   facet normal -2.449294e-16 -1.224647e-16 -1.000000e+00
      outer loop
         vertex 1.091034e+02 -2.677500e+01 -7.475000e+01
         vertex 1.094034e+02 -2.707500e+01 -7.475000e+01
         vertex 1.094034e+02 -2.737500e+01 -7.475000e+01
      endloop
   endfacet
   facet normal -2.449294e-16 -1.224647e-16 -1.000000e+00
      outer loop
         vertex 1.091034e+02 -2.677500e+01 -7.475000e+01
         vertex 1.094034e+02 -2.737500e+01 -7.475000e+01
         vertex 1.074034e+02 -2.737500e+01 -7.475000e+01
      endloop
   endfacet
   facet normal -2.449294e-16 -1.224647e-16 -1.000000e+00
      outer loop
         vertex 1.091034e+02 -2.677500e+01 -7.475000e+01
         vertex 1.074034e+02 -2.737500e+01 -7.475000e+01
         vertex 1.074034e+02 -2.677500e+01 -7.475000e+01
      endloop
   endfacet
   facet normal -2.449294e-16 -1.224647e-16 -1.000000e+00
      outer loop
         vertex 1.074034e+02 -2.787500e+01 -7.475000e+01
         vertex 1.094034e+02 -2.787500e+01 -7.475000e+01
         vertex 1.094034e+02 -2.817500e+01 -7.475000e+01
      endloop
   endfacet
   facet normal -2.449294e-16 -1.224647e-16 -1.000000e+00
      outer loop
         vertex 1.074034e+02 -2.787500e+01 -7.475000e+01
         vertex 1.094034e+02 -2.817500e+01 -7.475000e+01
         vertex 1.091034e+02 -2.847500e+01 -7.475000e+01
      endloop
   endfacet
   facet normal -2.449294e-16 -1.224647e-16 -1.000000e+00
      outer loop
         vertex 1.074034e+02 -2.787500e+01 -7.475000e+01
         vertex 1.091034e+02 -2.847500e+01 -7.475000e+01
         vertex 1.074034e+02 -2.847500e+01 -7.475000e+01
      endloop
   endfacet
   facet normal 2.449294e-16 1.224647e-16 1.000000e+00
      outer loop
         vertex 1.091034e+02 -2.847500e+01 -7.425000e+01
         vertex 1.094034e+02 -2.817500e+01 -7.425000e+01
         vertex 1.094034e+02 -2.787500e+01 -7.425000e+01
      endloop
   endfacet
   facet normal 2.449294e-16 1.224647e-16 1.000000e+00
      outer loop
         vertex 1.091034e+02 -2.847500e+01 -7.425000e+01
         vertex 1.094034e+02 -2.787500e+01 -7.425000e+01
         vertex 1.074034e+02 -2.787500e+01 -7.425000e+01
      endloop
   endfacet
   facet normal 2.449294e-16 1.224647e-16 1.000000e+00
      outer loop
         vertex 1.091034e+02 -2.847500e+01 -7.425000e+01
         vertex 1.074034e+02 -2.787500e+01 -7.425000e+01
         vertex 1.074034e+02 -2.847500e+01 -7.425000e+01
      endloop
   endfacet
   facet normal -1.224647e-16 1.000000e+00 -1.224647e-16
      outer loop
         vertex 1.074034e+02 -2.677500e+01 -7.475000e+01
         vertex 1.074034e+02 -2.677500e+01 -7.425000e+01
         vertex 1.091034e+02 -2.677500e+01 -7.425000e+01
      endloop
   endfacet
   facet normal -1.224647e-16 1.000000e+00 -1.224647e-16
      outer loop
         vertex 1.074034e+02 -2.677500e+01 -7.475000e+01
         vertex 1.091034e+02 -2.677500e+01 -7.425000e+01
         vertex 1.091034e+02 -2.677500e+01 -7.475000e+01
      endloop
   endfacet
   facet normal 1.000000e+00 1.836970e-16 -2.449294e-16
      outer loop
         vertex 1.094034e+02 -2.707500e+01 -7.475000e+01
         vertex 1.094034e+02 -2.707500e+01 -7.425000e+01
         vertex 1.094034e+02 -2.737500e+01 -7.425000e+01
      endloop
   endfacet
   facet normal 1.000000e+00 1.836970e-16 -2.449294e-16
      outer loop
         vertex 1.094034e+02 -2.707500e+01 -7.475000e+01
         vertex 1.094034e+02 -2.737500e+01 -7.425000e+01
         vertex 1.094034e+02 -2.787500e+01 -7.425000e+01
      endloop
   endfacet
   facet normal 1.000000e+00 1.836970e-16 -2.449294e-16
      outer loop
         vertex 1.094034e+02 -2.707500e+01 -7.475000e+01
         vertex 1.094034e+02 -2.787500e+01 -7.425000e+01
         vertex 1.094034e+02 -2.817500e+01 -7.425000e+01
      endloop
   endfacet
   facet normal 1.000000e+00 1.836970e-16 -2.449294e-16
      outer loop
         vertex 1.094034e+02 -2.707500e+01 -7.475000e+01
         vertex 1.094034e+02 -2.817500e+01 -7.425000e+01
         vertex 1.094034e+02 -2.817500e+01 -7.475000e+01
      endloop
   endfacet
   facet normal 1.000000e+00 1.836970e-16 -2.449294e-16
      outer loop
         vertex 1.094034e+02 -2.707500e+01 -7.475000e+01
         vertex 1.094034e+02 -2.787500e+01 -7.475000e+01
         vertex 1.094034e+02 -2.817500e+01 -7.475000e+01
      endloop
   endfacet
   facet normal 1.000000e+00 1.836970e-16 -2.449294e-16
      outer loop
         vertex 1.094034e+02 -2.707500e+01 -7.475000e+01
         vertex 1.094034e+02 -2.737500e+01 -7.475000e+01
         vertex 1.094034e+02 -2.787500e+01 -7.475000e+01
      endloop
   endfacet
   facet normal 5.628647e-32 -1.000000e+00 1.224647e-16
      outer loop
         vertex 1.091034e+02 -2.847500e+01 -7.475000e+01
         vertex 1.091034e+02 -2.847500e+01 -7.425000e+01
         vertex 1.074034e+02 -2.847500e+01 -7.425000e+01
      endloop
   endfacet
   facet normal 5.628647e-32 -1.000000e+00 1.224647e-16
      outer loop
         vertex 1.091034e+02 -2.847500e+01 -7.475000e+01
         vertex 1.074034e+02 -2.847500e+01 -7.425000e+01
         vertex 1.074034e+02 -2.847500e+01 -7.475000e+01
      endloop
   endfacet
   facet normal -1.173546e-31 1.000000e+00 -2.449294e-16
      outer loop
         vertex 1.094034e+02 -2.737500e+01 -7.425000e+01
         vertex 1.074034e+02 -2.737500e+01 -7.425000e+01
         vertex 1.074034e+02 -2.737500e+01 -7.365000e+01
      endloop
   endfacet
   facet normal -1.173546e-31 1.000000e+00 -2.449294e-16
      outer loop
         vertex 1.094034e+02 -2.737500e+01 -7.425000e+01
         vertex 1.074034e+02 -2.737500e+01 -7.365000e+01
         vertex 1.091034e+02 -2.737500e+01 -7.365000e+01
      endloop
   endfacet
   facet normal -1.173546e-31 1.000000e+00 -2.449294e-16
      outer loop
         vertex 1.094034e+02 -2.737500e+01 -7.425000e+01
         vertex 1.091034e+02 -2.737500e+01 -7.365000e+01
         vertex 1.094034e+02 -2.737500e+01 -7.395000e+01
      endloop
   endfacet
   facet normal 1.548486e-31 -1.000000e+00 3.673940e-16
      outer loop
         vertex 1.094034e+02 -2.787500e+01 -7.475000e+01
         vertex 1.074034e+02 -2.787500e+01 -7.475000e+01
         vertex 1.074034e+02 -2.787500e+01 -7.535000e+01
      endloop
   endfacet
   facet normal 1.548486e-31 -1.000000e+00 3.673940e-16
      outer loop
         vertex 1.094034e+02 -2.787500e+01 -7.475000e+01
         vertex 1.074034e+02 -2.787500e+01 -7.535000e+01
         vertex 1.091034e+02 -2.787500e+01 -7.535000e+01
      endloop
   endfacet
   facet normal 1.548486e-31 -1.000000e+00 3.673940e-16
      outer loop
         vertex 1.094034e+02 -2.787500e+01 -7.475000e+01
         vertex 1.091034e+02 -2.787500e+01 -7.535000e+01
         vertex 1.094034e+02 -2.787500e+01 -7.505000e+01
      endloop
   endfacet
   facet normal 1.000000e+00 4.236662e-32 -3.061617e-16
      outer loop
         vertex 1.094034e+02 -2.737500e+01 -7.395000e+01
         vertex 1.094034e+02 -2.787500e+01 -7.395000e+01
         vertex 1.094034e+02 -2.787500e+01 -7.425000e+01
      endloop
   endfacet
   facet normal 1.000000e+00 4.236662e-32 -3.061617e-16
      outer loop
         vertex 1.094034e+02 -2.737500e+01 -7.395000e+01
         vertex 1.094034e+02 -2.787500e+01 -7.425000e+01
         vertex 1.094034e+02 -2.737500e+01 -7.425000e+01
      endloop
   endfacet
   facet normal 1.000000e+00 4.236662e-32 -3.061617e-16
      outer loop
         vertex 1.094034e+02 -2.787500e+01 -7.505000e+01
         vertex 1.094034e+02 -2.737500e+01 -7.505000e+01
         vertex 1.094034e+02 -2.737500e+01 -7.475000e+01
      endloop
   endfacet
   facet normal 1.000000e+00 4.236662e-32 -3.061617e-16
      outer loop
         vertex 1.094034e+02 -2.787500e+01 -7.505000e+01
         vertex 1.094034e+02 -2.737500e+01 -7.475000e+01
         vertex 1.094034e+02 -2.787500e+01 -7.475000e+01
      endloop
   endfacet
   facet normal 3.061617e-16 3.061617e-16 1.000000e+00
      outer loop
         vertex 1.091034e+02 -2.787500e+01 -7.365000e+01
         vertex 1.091034e+02 -2.737500e+01 -7.365000e+01
         vertex 1.074034e+02 -2.737500e+01 -7.365000e+01
      endloop
   endfacet
   facet normal 3.061617e-16 3.061617e-16 1.000000e+00
      outer loop
         vertex 1.091034e+02 -2.787500e+01 -7.365000e+01
         vertex 1.074034e+02 -2.737500e+01 -7.365000e+01
         vertex 1.074034e+02 -2.787500e+01 -7.365000e+01
      endloop
   endfacet
   facet normal 1.548486e-31 -1.000000e+00 3.673940e-16
      outer loop
         vertex 1.074034e+02 -2.787500e+01 -7.425000e+01
         vertex 1.094034e+02 -2.787500e+01 -7.425000e+01
         vertex 1.094034e+02 -2.787500e+01 -7.395000e+01
      endloop
   endfacet
   facet normal 1.548486e-31 -1.000000e+00 3.673940e-16
      outer loop
         vertex 1.074034e+02 -2.787500e+01 -7.425000e+01
         vertex 1.094034e+02 -2.787500e+01 -7.395000e+01
         vertex 1.091034e+02 -2.787500e+01 -7.365000e+01
      endloop
   endfacet
   facet normal 1.548486e-31 -1.000000e+00 3.673940e-16
      outer loop
         vertex 1.074034e+02 -2.787500e+01 -7.425000e+01
         vertex 1.091034e+02 -2.787500e+01 -7.365000e+01
         vertex 1.074034e+02 -2.787500e+01 -7.365000e+01
      endloop
   endfacet
   facet normal -3.061617e-16 -1.836970e-16 -1.000000e+00
      outer loop
         vertex 1.091034e+02 -2.737500e+01 -7.535000e+01
         vertex 1.091034e+02 -2.787500e+01 -7.535000e+01
         vertex 1.074034e+02 -2.787500e+01 -7.535000e+01
      endloop
   endfacet
   facet normal -3.061617e-16 -1.836970e-16 -1.000000e+00
      outer loop
         vertex 1.091034e+02 -2.737500e+01 -7.535000e+01
         vertex 1.074034e+02 -2.787500e+01 -7.535000e+01
         vertex 1.074034e+02 -2.737500e+01 -7.535000e+01
      endloop
   endfacet
   facet normal -1.173546e-31 1.000000e+00 -2.449294e-16
      outer loop
         vertex 1.074034e+02 -2.737500e+01 -7.475000e+01
         vertex 1.094034e+02 -2.737500e+01 -7.475000e+01
         vertex 1.094034e+02 -2.737500e+01 -7.505000e+01
      endloop
   endfacet
   facet normal -1.173546e-31 1.000000e+00 -2.449294e-16
      outer loop
         vertex 1.074034e+02 -2.737500e+01 -7.475000e+01
         vertex 1.094034e+02 -2.737500e+01 -7.505000e+01
         vertex 1.091034e+02 -2.737500e+01 -7.535000e+01
      endloop
   endfacet
   facet normal -1.173546e-31 1.000000e+00 -2.449294e-16
      outer loop
         vertex 1.074034e+02 -2.737500e+01 -7.475000e+01
         vertex 1.091034e+02 -2.737500e+01 -7.535000e+01
         vertex 1.074034e+02 -2.737500e+01 -7.535000e+01
      endloop
   endfacet
   facet normal 7.071068e-01 2.428663e-15 -7.071068e-01
      outer loop
         vertex 1.091034e+02 -2.737500e+01 -7.535000e+01
         vertex 1.094034e+02 -2.787500e+01 -7.505000e+01
         vertex 1.091034e+02 -2.787500e+01 -7.535000e+01
      endloop
   endfacet
   facet normal 7.071068e-01 2.428663e-15 -7.071068e-01
      outer loop
         vertex 1.091034e+02 -2.737500e+01 -7.535000e+01
         vertex 1.094034e+02 -2.737500e+01 -7.505000e+01
         vertex 1.094034e+02 -2.787500e+01 -7.505000e+01
      endloop
   endfacet
   facet normal 7.071068e-01 -7.071068e-01 -2.428663e-15
      outer loop
         vertex 1.091034e+02 -2.847500e+01 -7.475000e+01
         vertex 1.094034e+02 -2.817500e+01 -7.425000e+01
         vertex 1.091034e+02 -2.847500e+01 -7.425000e+01
      endloop
   endfacet
   facet normal 7.071068e-01 -7.071068e-01 -2.428663e-15
      outer loop
         vertex 1.091034e+02 -2.847500e+01 -7.475000e+01
         vertex 1.094034e+02 -2.817500e+01 -7.475000e+01
         vertex 1.094034e+02 -2.817500e+01 -7.425000e+01
      endloop
   endfacet
   facet normal 7.071068e-01 -2.428663e-15 7.071068e-01
      outer loop
         vertex 1.091034e+02 -2.787500e+01 -7.365000e+01
         vertex 1.094034e+02 -2.737500e+01 -7.395000e+01
         vertex 1.091034e+02 -2.737500e+01 -7.365000e+01
      endloop
   endfacet
   facet normal 7.071068e-01 -2.428663e-15 7.071068e-01
      outer loop
         vertex 1.091034e+02 -2.787500e+01 -7.365000e+01
         vertex 1.094034e+02 -2.787500e+01 -7.395000e+01
         vertex 1.094034e+02 -2.737500e+01 -7.395000e+01
      endloop
   endfacet
   facet normal 7.071068e-01 7.071068e-01 0.000000e+00
      outer loop
         vertex 1.094034e+02 -2.707500e+01 -7.475000e+01
         vertex 1.091034e+02 -2.677500e+01 -7.425000e+01
         vertex 1.094034e+02 -2.707500e+01 -7.425000e+01
      endloop
   endfacet
   facet normal 7.071068e-01 7.071068e-01 0.000000e+00
      outer loop
         vertex 1.094034e+02 -2.707500e+01 -7.475000e+01
         vertex 1.091034e+02 -2.677500e+01 -7.475000e+01
         vertex 1.091034e+02 -2.677500e+01 -7.425000e+01
      endloop
   endfacet
endsolid
