solid cube32
   facet normal -1.000000e+00 4.060244e-15 -7.438226e-17
      outer loop
         vertex -8.138458e+01 -6.113637e+01 7.759812e+01
         vertex -8.138458e+01 -5.913637e+01 7.559812e+01
         vertex -8.138458e+01 -6.113637e+01 4.559812e+01
      endloop
   endfacet
   facet normal -1.000000e+00 4.060244e-15 -7.438226e-17
      outer loop
         vertex -8.138458e+01 -5.913637e+01 7.559812e+01
         vertex -8.138458e+01 -5.913637e+01 4.759812e+01
         vertex -8.138458e+01 -6.113637e+01 4.559812e+01
      endloop
   endfacet
   facet normal -1.000000e+00 4.060244e-15 -7.438226e-17
      outer loop
         vertex -8.138458e+01 -6.113637e+01 4.559812e+01
         vertex -8.138458e+01 -5.913637e+01 4.759812e+01
         vertex -8.138458e+01 -2.913637e+01 4.559812e+01
      endloop
   endfacet
   facet normal -1.000000e+00 4.060244e-15 -7.438226e-17
      outer loop
         vertex -8.138458e+01 -5.913637e+01 4.759812e+01
         vertex -8.138458e+01 -3.113637e+01 4.759812e+01
         vertex -8.138458e+01 -2.913637e+01 4.559812e+01
      endloop
   endfacet
   facet normal -1.000000e+00 4.060244e-15 -7.438226e-17
      outer loop
         vertex -8.138458e+01 -2.913637e+01 4.559812e+01
         vertex -8.138458e+01 -3.113637e+01 4.759812e+01
         vertex -8.138458e+01 -2.913637e+01 7.759812e+01
      endloop
   endfacet
   facet normal -1.000000e+00 4.060244e-15 -7.438226e-17
      outer loop
         vertex -8.138458e+01 -3.113637e+01 4.759812e+01
         vertex -8.138458e+01 -3.113637e+01 7.559812e+01
         vertex -8.138458e+01 -2.913637e+01 7.759812e+01
      endloop
   endfacet
   facet normal -1.000000e+00 4.060244e-15 -7.438226e-17
      outer loop
         vertex -8.138458e+01 -2.913637e+01 7.759812e+01
         vertex -8.138458e+01 -3.113637e+01 7.559812e+01
         vertex -8.138458e+01 -5.913637e+01 7.559812e+01
      endloop
   endfacet
   facet normal -1.000000e+00 4.060244e-15 -7.438226e-17
      outer loop
         vertex -8.138458e+01 -5.913637e+01 7.559812e+01
         vertex -8.138458e+01 -6.113637e+01 7.759812e+01
         vertex -8.138458e+01 -2.913637e+01 7.759812e+01
      endloop
   endfacet
   facet normal 1.000000e+00 -4.060244e-15 7.438226e-17
      outer loop
         vertex -4.938458e+01 -6.113637e+01 4.559812e+01
         vertex -4.938458e+01 -2.913637e+01 4.559812e+01
         vertex -4.938458e+01 -2.913637e+01 7.759812e+01
      endloop
   endfacet
   facet normal 1.000000e+00 -4.060244e-15 7.438226e-17
      outer loop
         vertex -4.938458e+01 -6.113637e+01 4.559812e+01
         vertex -4.938458e+01 -2.913637e+01 7.759812e+01
         vertex -4.938458e+01 -6.113637e+01 7.759812e+01
      endloop
   endfacet
   facet normal -4.060244e-15 -1.000000e+00 -2.449294e-16
      outer loop
         vertex -8.138458e+01 -6.113637e+01 4.559812e+01
         vertex -4.938458e+01 -6.113637e+01 4.559812e+01
         vertex -4.938458e+01 -6.113637e+01 7.759812e+01
      endloop
   endfacet
   facet normal -4.060244e-15 -1.000000e+00 -2.449294e-16
      outer loop
         vertex -8.138458e+01 -6.113637e+01 4.559812e+01
         vertex -4.938458e+01 -6.113637e+01 7.759812e+01
         vertex -8.138458e+01 -6.113637e+01 7.759812e+01
      endloop
   endfacet
   facet normal -7.438226e-17 -3.061617e-16 1.000000e+00
      outer loop
         vertex -8.138458e+01 -6.113637e+01 7.759812e+01
         vertex -4.938458e+01 -6.113637e+01 7.759812e+01
         vertex -4.938458e+01 -2.913637e+01 7.759812e+01
      endloop
   endfacet
   facet normal -7.438226e-17 -3.061617e-16 1.000000e+00
      outer loop
         vertex -8.138458e+01 -6.113637e+01 7.759812e+01
         vertex -4.938458e+01 -2.913637e+01 7.759812e+01
         vertex -8.138458e+01 -2.913637e+01 7.759812e+01
      endloop
   endfacet
   facet normal 4.060244e-15 1.000000e+00 1.224647e-16
      outer loop
         vertex -8.138458e+01 -2.913637e+01 7.759812e+01
         vertex -4.938458e+01 -2.913637e+01 7.759812e+01
         vertex -4.938458e+01 -2.913637e+01 4.559812e+01
      endloop
   endfacet
   facet normal 4.060244e-15 1.000000e+00 1.224647e-16
      outer loop
         vertex -8.138458e+01 -2.913637e+01 7.759812e+01
         vertex -4.938458e+01 -2.913637e+01 4.559812e+01
         vertex -8.138458e+01 -2.913637e+01 4.559812e+01
      endloop
   endfacet
   facet normal 7.438226e-17 1.836970e-16 -1.000000e+00
      outer loop
         vertex -8.138458e+01 -2.913637e+01 4.559812e+01
         vertex -4.938458e+01 -2.913637e+01 4.559812e+01
         vertex -4.938458e+01 -6.113637e+01 4.559812e+01
      endloop
   endfacet
   facet normal 7.438226e-17 1.836970e-16 -1.000000e+00
      outer loop
         vertex -8.138458e+01 -2.913637e+01 4.559812e+01
         vertex -4.938458e+01 -6.113637e+01 4.559812e+01
         vertex -8.138458e+01 -6.113637e+01 4.559812e+01
      endloop
   endfacet
   facet normal -1.000000e+00 4.060244e-15 -7.438226e-17
      outer loop
         vertex -5.138458e+01 -5.913637e+01 7.559812e+01
         vertex -5.138458e+01 -3.113637e+01 4.759812e+01
         vertex -5.138458e+01 -5.913637e+01 4.759812e+01
      endloop
   endfacet
   facet normal -1.000000e+00 4.060244e-15 -7.438226e-17
      outer loop
         vertex -5.138458e+01 -5.913637e+01 7.559812e+01
         vertex -5.138458e+01 -3.113637e+01 7.559812e+01
         vertex -5.138458e+01 -3.113637e+01 4.759812e+01
      endloop
   endfacet
   facet normal 4.060244e-15 1.000000e+00 2.449294e-16
      outer loop
         vertex -8.138458e+01 -5.913637e+01 7.559812e+01
         vertex -5.138458e+01 -5.913637e+01 4.759812e+01
         vertex -8.138458e+01 -5.913637e+01 4.759812e+01
      endloop
   endfacet
   facet normal 4.060244e-15 1.000000e+00 2.449294e-16
      outer loop
         vertex -8.138458e+01 -5.913637e+01 7.559812e+01
         vertex -5.138458e+01 -5.913637e+01 7.559812e+01
         vertex -5.138458e+01 -5.913637e+01 4.759812e+01
      endloop
   endfacet
   facet normal 7.438226e-17 3.061617e-16 -1.000000e+00
      outer loop
         vertex -8.138458e+01 -3.113637e+01 7.559812e+01
         vertex -5.138458e+01 -5.913637e+01 7.559812e+01
         vertex -8.138458e+01 -5.913637e+01 7.559812e+01
      endloop
   endfacet
   facet normal 7.438226e-17 3.061617e-16 -1.000000e+00
      outer loop
         vertex -8.138458e+01 -3.113637e+01 7.559812e+01
         vertex -5.138458e+01 -3.113637e+01 7.559812e+01
         vertex -5.138458e+01 -5.913637e+01 7.559812e+01
      endloop
   endfacet
   facet normal -4.060244e-15 -1.000000e+00 -1.224647e-16
      outer loop
         vertex -8.138458e+01 -3.113637e+01 4.759812e+01
         vertex -5.138458e+01 -3.113637e+01 7.559812e+01
         vertex -8.138458e+01 -3.113637e+01 7.559812e+01
      endloop
   endfacet
   facet normal -4.060244e-15 -1.000000e+00 -1.224647e-16
      outer loop
         vertex -8.138458e+01 -3.113637e+01 4.759812e+01
         vertex -5.138458e+01 -3.113637e+01 4.759812e+01
         vertex -5.138458e+01 -3.113637e+01 7.559812e+01
      endloop
   endfacet
   facet normal -7.438226e-17 -1.836970e-16 1.000000e+00
      outer loop
         vertex -8.138458e+01 -5.913637e+01 4.759812e+01
         vertex -5.138458e+01 -3.113637e+01 4.759812e+01
         vertex -8.138458e+01 -3.113637e+01 4.759812e+01
      endloop
   endfacet
   facet normal -7.438226e-17 -1.836970e-16 1.000000e+00
      outer loop
         vertex -8.138458e+01 -5.913637e+01 4.759812e+01
         vertex -5.138458e+01 -5.913637e+01 4.759812e+01
         vertex -5.138458e+01 -3.113637e+01 4.759812e+01
      endloop
   endfacet
endsolid
