solid rad
   facet normal -9.801714e-02 -0.000000e+00 9.951847e-01
      outer loop
         vertex -4.062214e+01 -3.062500e+01 4.000000e+00
         vertex -4.062214e+01 -2.882500e+01 4.000000e+00
         vertex -4.159759e+01 -2.882500e+01 3.903926e+00
      endloop
   endfacet
   facet normal -9.801714e-02 -0.000000e+00 9.951847e-01
      outer loop
         vertex -4.062214e+01 -3.062500e+01 4.000000e+00
         vertex -4.159759e+01 -2.882500e+01 3.903926e+00
         vertex -4.159759e+01 -3.062500e+01 3.903926e+00
      endloop
   endfacet
   facet normal -2.902847e-01 -0.000000e+00 9.569403e-01
      outer loop
         vertex -4.159759e+01 -3.062500e+01 3.903926e+00
         vertex -4.159759e+01 -2.882500e+01 3.903926e+00
         vertex -4.253556e+01 -2.882500e+01 3.619398e+00
      endloop
   endfacet
   facet normal -2.902847e-01 -0.000000e+00 9.569403e-01
      outer loop
         vertex -4.159759e+01 -3.062500e+01 3.903926e+00
         vertex -4.253556e+01 -2.882500e+01 3.619398e+00
         vertex -4.253556e+01 -3.062500e+01 3.619398e+00
      endloop
   endfacet
   facet normal -4.713967e-01 -0.000000e+00 8.819213e-01
      outer loop
         vertex -4.253556e+01 -3.062500e+01 3.619398e+00
         vertex -4.253556e+01 -2.882500e+01 3.619398e+00
         vertex -4.339999e+01 -2.882500e+01 3.157348e+00
      endloop
   endfacet
   facet normal -4.713967e-01 -0.000000e+00 8.819213e-01
      outer loop
         vertex -4.253556e+01 -3.062500e+01 3.619398e+00
         vertex -4.339999e+01 -2.882500e+01 3.157348e+00
         vertex -4.339999e+01 -3.062500e+01 3.157348e+00
      endloop
   endfacet
   facet normal -6.343933e-01 -0.000000e+00 7.730105e-01
      outer loop
         vertex -4.339999e+01 -3.062500e+01 3.157348e+00
         vertex -4.339999e+01 -2.882500e+01 3.157348e+00
         vertex -4.415768e+01 -2.882500e+01 2.535534e+00
      endloop
   endfacet
   facet normal -6.343933e-01 -0.000000e+00 7.730105e-01
      outer loop
         vertex -4.339999e+01 -3.062500e+01 3.157348e+00
         vertex -4.415768e+01 -2.882500e+01 2.535534e+00
         vertex -4.415768e+01 -3.062500e+01 2.535534e+00
      endloop
   endfacet
   facet normal -7.730105e-01 -0.000000e+00 6.343933e-01
      outer loop
         vertex -4.415768e+01 -3.062500e+01 2.535534e+00
         vertex -4.415768e+01 -2.882500e+01 2.535534e+00
         vertex -4.477949e+01 -2.882500e+01 1.777851e+00
      endloop
   endfacet
   facet normal -7.730105e-01 -0.000000e+00 6.343933e-01
      outer loop
         vertex -4.415768e+01 -3.062500e+01 2.535534e+00
         vertex -4.477949e+01 -2.882500e+01 1.777851e+00
         vertex -4.477949e+01 -3.062500e+01 1.777851e+00
      endloop
   endfacet
   facet normal -8.819213e-01 -0.000000e+00 4.713967e-01
      outer loop
         vertex -4.477949e+01 -3.062500e+01 1.777851e+00
         vertex -4.477949e+01 -2.882500e+01 1.777851e+00
         vertex -4.524154e+01 -2.882500e+01 9.134172e-01
      endloop
   endfacet
   facet normal -8.819213e-01 -0.000000e+00 4.713967e-01
      outer loop
         vertex -4.477949e+01 -3.062500e+01 1.777851e+00
         vertex -4.524154e+01 -2.882500e+01 9.134172e-01
         vertex -4.524154e+01 -3.062500e+01 9.134172e-01
      endloop
   endfacet
   facet normal -9.569403e-01 -0.000000e+00 2.902847e-01
      outer loop
         vertex -4.524154e+01 -3.062500e+01 9.134172e-01
         vertex -4.524154e+01 -2.882500e+01 9.134172e-01
         vertex -4.552607e+01 -2.882500e+01 -2.454839e-02
      endloop
   endfacet
   facet normal -9.569403e-01 -0.000000e+00 2.902847e-01
      outer loop
         vertex -4.524154e+01 -3.062500e+01 9.134172e-01
         vertex -4.552607e+01 -2.882500e+01 -2.454839e-02
         vertex -4.552607e+01 -3.062500e+01 -2.454839e-02
      endloop
   endfacet
   facet normal -9.951847e-01 -0.000000e+00 9.801714e-02
      outer loop
         vertex -4.552607e+01 -3.062500e+01 -2.454839e-02
         vertex -4.552607e+01 -2.882500e+01 -2.454839e-02
         vertex -4.562214e+01 -2.882500e+01 -1.000000e+00
      endloop
   endfacet
   facet normal -9.951847e-01 -0.000000e+00 9.801714e-02
      outer loop
         vertex -4.552607e+01 -3.062500e+01 -2.454839e-02
         vertex -4.562214e+01 -2.882500e+01 -1.000000e+00
         vertex -4.562214e+01 -3.062500e+01 -1.000000e+00
      endloop
   endfacet
   facet normal -9.951847e-01 -0.000000e+00 -9.801714e-02
      outer loop
         vertex -4.562214e+01 -3.062500e+01 -1.000000e+00
         vertex -4.562214e+01 -2.882500e+01 -1.000000e+00
         vertex -4.552607e+01 -2.882500e+01 -1.975452e+00
      endloop
   endfacet
   facet normal -9.951847e-01 -0.000000e+00 -9.801714e-02
      outer loop
         vertex -4.562214e+01 -3.062500e+01 -1.000000e+00
         vertex -4.552607e+01 -2.882500e+01 -1.975452e+00
         vertex -4.552607e+01 -3.062500e+01 -1.975452e+00
      endloop
   endfacet
   facet normal -9.569403e-01 -0.000000e+00 -2.902847e-01
      outer loop
         vertex -4.552607e+01 -3.062500e+01 -1.975452e+00
         vertex -4.552607e+01 -2.882500e+01 -1.975452e+00
         vertex -4.524154e+01 -2.882500e+01 -2.913417e+00
      endloop
   endfacet
   facet normal -9.569403e-01 -0.000000e+00 -2.902847e-01
      outer loop
         vertex -4.552607e+01 -3.062500e+01 -1.975452e+00
         vertex -4.524154e+01 -2.882500e+01 -2.913417e+00
         vertex -4.524154e+01 -3.062500e+01 -2.913417e+00
      endloop
   endfacet
   facet normal -8.819213e-01 -0.000000e+00 -4.713967e-01
      outer loop
         vertex -4.524154e+01 -3.062500e+01 -2.913417e+00
         vertex -4.524154e+01 -2.882500e+01 -2.913417e+00
         vertex -4.477949e+01 -2.882500e+01 -3.777851e+00
      endloop
   endfacet
   facet normal -8.819213e-01 -0.000000e+00 -4.713967e-01
      outer loop
         vertex -4.524154e+01 -3.062500e+01 -2.913417e+00
         vertex -4.477949e+01 -2.882500e+01 -3.777851e+00
         vertex -4.477949e+01 -3.062500e+01 -3.777851e+00
      endloop
   endfacet
   facet normal -7.730105e-01 -0.000000e+00 -6.343933e-01
      outer loop
         vertex -4.477949e+01 -3.062500e+01 -3.777851e+00
         vertex -4.477949e+01 -2.882500e+01 -3.777851e+00
         vertex -4.415768e+01 -2.882500e+01 -4.535534e+00
      endloop
   endfacet
   facet normal -7.730105e-01 -0.000000e+00 -6.343933e-01
      outer loop
         vertex -4.477949e+01 -3.062500e+01 -3.777851e+00
         vertex -4.415768e+01 -2.882500e+01 -4.535534e+00
         vertex -4.415768e+01 -3.062500e+01 -4.535534e+00
      endloop
   endfacet
   facet normal -6.343933e-01 -0.000000e+00 -7.730105e-01
      outer loop
         vertex -4.415768e+01 -3.062500e+01 -4.535534e+00
         vertex -4.415768e+01 -2.882500e+01 -4.535534e+00
         vertex -4.339999e+01 -2.882500e+01 -5.157348e+00
      endloop
   endfacet
   facet normal -6.343933e-01 -0.000000e+00 -7.730105e-01
      outer loop
         vertex -4.415768e+01 -3.062500e+01 -4.535534e+00
         vertex -4.339999e+01 -2.882500e+01 -5.157348e+00
         vertex -4.339999e+01 -3.062500e+01 -5.157348e+00
      endloop
   endfacet
   facet normal -4.713967e-01 -0.000000e+00 -8.819213e-01
      outer loop
         vertex -4.339999e+01 -3.062500e+01 -5.157348e+00
         vertex -4.339999e+01 -2.882500e+01 -5.157348e+00
         vertex -4.253556e+01 -2.882500e+01 -5.619398e+00
      endloop
   endfacet
   facet normal -4.713967e-01 -0.000000e+00 -8.819213e-01
      outer loop
         vertex -4.339999e+01 -3.062500e+01 -5.157348e+00
         vertex -4.253556e+01 -2.882500e+01 -5.619398e+00
         vertex -4.253556e+01 -3.062500e+01 -5.619398e+00
      endloop
   endfacet
   facet normal -2.902847e-01 -0.000000e+00 -9.569403e-01
      outer loop
         vertex -4.253556e+01 -3.062500e+01 -5.619398e+00
         vertex -4.253556e+01 -2.882500e+01 -5.619398e+00
         vertex -4.159759e+01 -2.882500e+01 -5.903926e+00
      endloop
   endfacet
   facet normal -2.902847e-01 -0.000000e+00 -9.569403e-01
      outer loop
         vertex -4.253556e+01 -3.062500e+01 -5.619398e+00
         vertex -4.159759e+01 -2.882500e+01 -5.903926e+00
         vertex -4.159759e+01 -3.062500e+01 -5.903926e+00
      endloop
   endfacet
   facet normal -9.801714e-02 -0.000000e+00 -9.951847e-01
      outer loop
         vertex -4.159759e+01 -3.062500e+01 -5.903926e+00
         vertex -4.159759e+01 -2.882500e+01 -5.903926e+00
         vertex -4.062214e+01 -2.882500e+01 -6.000000e+00
      endloop
   endfacet
   facet normal -9.801714e-02 -0.000000e+00 -9.951847e-01
      outer loop
         vertex -4.159759e+01 -3.062500e+01 -5.903926e+00
         vertex -4.062214e+01 -2.882500e+01 -6.000000e+00
         vertex -4.062214e+01 -3.062500e+01 -6.000000e+00
      endloop
   endfacet
   facet normal 6.123234e-17 1.000000e+00 1.836970e-16
      outer loop
         vertex -3.562214e+01 -2.882500e+01 -1.000000e+00
         vertex -3.571822e+01 -2.882500e+01 -1.975452e+00
         vertex -3.571822e+01 -2.882500e+01 -2.454839e-02
      endloop
   endfacet
   facet normal 6.123234e-17 1.000000e+00 1.836970e-16
      outer loop
         vertex -3.571822e+01 -2.882500e+01 -1.975452e+00
         vertex -3.600275e+01 -2.882500e+01 -2.913417e+00
         vertex -3.571822e+01 -2.882500e+01 -2.454839e-02
      endloop
   endfacet
   facet normal 6.123234e-17 1.000000e+00 1.836970e-16
      outer loop
         vertex -3.571822e+01 -2.882500e+01 -2.454839e-02
         vertex -3.600275e+01 -2.882500e+01 -2.913417e+00
         vertex -3.600275e+01 -2.882500e+01 9.134172e-01
      endloop
   endfacet
   facet normal 6.123234e-17 1.000000e+00 1.836970e-16
      outer loop
         vertex -3.600275e+01 -2.882500e+01 -2.913417e+00
         vertex -3.646479e+01 -2.882500e+01 -3.777851e+00
         vertex -3.600275e+01 -2.882500e+01 9.134172e-01
      endloop
   endfacet
   facet normal 6.123234e-17 1.000000e+00 1.836970e-16
      outer loop
         vertex -3.600275e+01 -2.882500e+01 9.134172e-01
         vertex -3.646479e+01 -2.882500e+01 -3.777851e+00
         vertex -3.646479e+01 -2.882500e+01 1.777851e+00
      endloop
   endfacet
   facet normal 6.123234e-17 1.000000e+00 1.836970e-16
      outer loop
         vertex -3.646479e+01 -2.882500e+01 -3.777851e+00
         vertex -3.708661e+01 -2.882500e+01 -4.535534e+00
         vertex -3.646479e+01 -2.882500e+01 1.777851e+00
      endloop
   endfacet
   facet normal 6.123234e-17 1.000000e+00 1.836970e-16
      outer loop
         vertex -3.646479e+01 -2.882500e+01 1.777851e+00
         vertex -3.708661e+01 -2.882500e+01 -4.535534e+00
         vertex -3.708661e+01 -2.882500e+01 2.535534e+00
      endloop
   endfacet
   facet normal 6.123234e-17 1.000000e+00 1.836970e-16
      outer loop
         vertex -3.708661e+01 -2.882500e+01 -4.535534e+00
         vertex -3.784429e+01 -2.882500e+01 -5.157348e+00
         vertex -3.708661e+01 -2.882500e+01 2.535534e+00
      endloop
   endfacet
   facet normal 6.123234e-17 1.000000e+00 1.836970e-16
      outer loop
         vertex -3.708661e+01 -2.882500e+01 2.535534e+00
         vertex -3.784429e+01 -2.882500e+01 -5.157348e+00
         vertex -3.784429e+01 -2.882500e+01 3.157348e+00
      endloop
   endfacet
   facet normal 6.123234e-17 1.000000e+00 1.836970e-16
      outer loop
         vertex -3.784429e+01 -2.882500e+01 -5.157348e+00
         vertex -3.870873e+01 -2.882500e+01 -5.619398e+00
         vertex -3.784429e+01 -2.882500e+01 3.157348e+00
      endloop
   endfacet
   facet normal 6.123234e-17 1.000000e+00 1.836970e-16
      outer loop
         vertex -3.784429e+01 -2.882500e+01 3.157348e+00
         vertex -3.870873e+01 -2.882500e+01 -5.619398e+00
         vertex -3.870873e+01 -2.882500e+01 3.619398e+00
      endloop
   endfacet
   facet normal 6.123234e-17 1.000000e+00 1.836970e-16
      outer loop
         vertex -3.870873e+01 -2.882500e+01 -5.619398e+00
         vertex -3.962214e+01 -2.882500e+01 -1.000000e+00
         vertex -3.870873e+01 -2.882500e+01 3.619398e+00
      endloop
   endfacet
   facet normal 6.123234e-17 1.000000e+00 1.836970e-16
      outer loop
         vertex -3.870873e+01 -2.882500e+01 3.619398e+00
         vertex -3.962214e+01 -2.882500e+01 -1.000000e+00
         vertex -3.964136e+01 -2.882500e+01 -8.049097e-01
      endloop
   endfacet
   facet normal 6.123234e-17 1.000000e+00 1.836970e-16
      outer loop
         vertex -3.979067e+01 -2.882500e+01 -1.555570e+00
         vertex -3.969826e+01 -2.882500e+01 -1.382683e+00
         vertex -3.964669e+01 -2.882500e+01 -5.903926e+00
      endloop
   endfacet
   facet normal 6.123234e-17 1.000000e+00 1.836970e-16
      outer loop
         vertex -3.969826e+01 -2.882500e+01 -1.382683e+00
         vertex -3.964136e+01 -2.882500e+01 -1.195090e+00
         vertex -3.964669e+01 -2.882500e+01 -5.903926e+00
      endloop
   endfacet
   facet normal 6.123234e-17 1.000000e+00 1.836970e-16
      outer loop
         vertex -3.964669e+01 -2.882500e+01 -5.903926e+00
         vertex -3.964136e+01 -2.882500e+01 -1.195090e+00
         vertex -3.870873e+01 -2.882500e+01 -5.619398e+00
      endloop
   endfacet
   facet normal 6.123234e-17 1.000000e+00 1.836970e-16
      outer loop
         vertex -3.964136e+01 -2.882500e+01 -1.195090e+00
         vertex -3.962214e+01 -2.882500e+01 -1.000000e+00
         vertex -3.870873e+01 -2.882500e+01 -5.619398e+00
      endloop
   endfacet
   facet normal 6.123234e-17 1.000000e+00 1.836970e-16
      outer loop
         vertex -3.964669e+01 -2.882500e+01 -5.903926e+00
         vertex -4.062214e+01 -2.882500e+01 -6.000000e+00
         vertex -4.042705e+01 -2.882500e+01 -1.980785e+00
      endloop
   endfacet
   facet normal 6.123234e-17 1.000000e+00 1.836970e-16
      outer loop
         vertex -3.964669e+01 -2.882500e+01 -5.903926e+00
         vertex -4.042705e+01 -2.882500e+01 -1.980785e+00
         vertex -4.023946e+01 -2.882500e+01 -1.923880e+00
      endloop
   endfacet
   facet normal 6.123234e-17 1.000000e+00 1.836970e-16
      outer loop
         vertex -3.964669e+01 -2.882500e+01 -5.903926e+00
         vertex -4.023946e+01 -2.882500e+01 -1.923880e+00
         vertex -4.006657e+01 -2.882500e+01 -1.831470e+00
      endloop
   endfacet
   facet normal 6.123234e-17 1.000000e+00 1.836970e-16
      outer loop
         vertex -3.964669e+01 -2.882500e+01 -5.903926e+00
         vertex -4.006657e+01 -2.882500e+01 -1.831470e+00
         vertex -3.991504e+01 -2.882500e+01 -1.707107e+00
      endloop
   endfacet
   facet normal 6.123234e-17 1.000000e+00 1.836970e-16
      outer loop
         vertex -3.964669e+01 -2.882500e+01 -5.903926e+00
         vertex -3.991504e+01 -2.882500e+01 -1.707107e+00
         vertex -3.979067e+01 -2.882500e+01 -1.555570e+00
      endloop
   endfacet
   facet normal 6.123234e-17 1.000000e+00 1.836970e-16
      outer loop
         vertex -4.062214e+01 -2.882500e+01 -6.000000e+00
         vertex -4.159759e+01 -2.882500e+01 -5.903926e+00
         vertex -4.154602e+01 -2.882500e+01 -1.382683e+00
      endloop
   endfacet
   facet normal 6.123234e-17 1.000000e+00 1.836970e-16
      outer loop
         vertex -4.062214e+01 -2.882500e+01 -6.000000e+00
         vertex -4.154602e+01 -2.882500e+01 -1.382683e+00
         vertex -4.145361e+01 -2.882500e+01 -1.555570e+00
      endloop
   endfacet
   facet normal 6.123234e-17 1.000000e+00 1.836970e-16
      outer loop
         vertex -4.062214e+01 -2.882500e+01 -6.000000e+00
         vertex -4.145361e+01 -2.882500e+01 -1.555570e+00
         vertex -4.132925e+01 -2.882500e+01 -1.707107e+00
      endloop
   endfacet
   facet normal 6.123234e-17 1.000000e+00 1.836970e-16
      outer loop
         vertex -4.062214e+01 -2.882500e+01 -6.000000e+00
         vertex -4.132925e+01 -2.882500e+01 -1.707107e+00
         vertex -4.117771e+01 -2.882500e+01 -1.831470e+00
      endloop
   endfacet
   facet normal 6.123234e-17 1.000000e+00 1.836970e-16
      outer loop
         vertex -4.062214e+01 -2.882500e+01 -6.000000e+00
         vertex -4.117771e+01 -2.882500e+01 -1.831470e+00
         vertex -4.100483e+01 -2.882500e+01 -1.923880e+00
      endloop
   endfacet
   facet normal 6.123234e-17 1.000000e+00 1.836970e-16
      outer loop
         vertex -4.062214e+01 -2.882500e+01 -6.000000e+00
         vertex -4.100483e+01 -2.882500e+01 -1.923880e+00
         vertex -4.081723e+01 -2.882500e+01 -1.980785e+00
      endloop
   endfacet
   facet normal 6.123234e-17 1.000000e+00 1.836970e-16
      outer loop
         vertex -4.062214e+01 -2.882500e+01 -6.000000e+00
         vertex -4.081723e+01 -2.882500e+01 -1.980785e+00
         vertex -4.062214e+01 -2.882500e+01 -2.000000e+00
      endloop
   endfacet
   facet normal 6.123234e-17 1.000000e+00 1.836970e-16
      outer loop
         vertex -4.062214e+01 -2.882500e+01 -6.000000e+00
         vertex -4.062214e+01 -2.882500e+01 -2.000000e+00
         vertex -4.042705e+01 -2.882500e+01 -1.980785e+00
      endloop
   endfacet
   facet normal 6.123234e-17 1.000000e+00 1.836970e-16
      outer loop
         vertex -4.253556e+01 -2.882500e+01 3.619398e+00
         vertex -4.159759e+01 -2.882500e+01 3.903926e+00
         vertex -4.253556e+01 -2.882500e+01 -5.619398e+00
      endloop
   endfacet
   facet normal 6.123234e-17 1.000000e+00 1.836970e-16
      outer loop
         vertex -4.159759e+01 -2.882500e+01 3.903926e+00
         vertex -4.162214e+01 -2.882500e+01 -1.000000e+00
         vertex -4.253556e+01 -2.882500e+01 -5.619398e+00
      endloop
   endfacet
   facet normal 6.123234e-17 1.000000e+00 1.836970e-16
      outer loop
         vertex -4.253556e+01 -2.882500e+01 -5.619398e+00
         vertex -4.162214e+01 -2.882500e+01 -1.000000e+00
         vertex -4.159759e+01 -2.882500e+01 -5.903926e+00
      endloop
   endfacet
   facet normal 6.123234e-17 1.000000e+00 1.836970e-16
      outer loop
         vertex -4.162214e+01 -2.882500e+01 -1.000000e+00
         vertex -4.160293e+01 -2.882500e+01 -1.195090e+00
         vertex -4.159759e+01 -2.882500e+01 -5.903926e+00
      endloop
   endfacet
   facet normal 6.123234e-17 1.000000e+00 1.836970e-16
      outer loop
         vertex -4.159759e+01 -2.882500e+01 -5.903926e+00
         vertex -4.160293e+01 -2.882500e+01 -1.195090e+00
         vertex -4.154602e+01 -2.882500e+01 -1.382683e+00
      endloop
   endfacet
   facet normal 6.123234e-17 1.000000e+00 1.836970e-16
      outer loop
         vertex -3.964669e+01 -2.882500e+01 3.903926e+00
         vertex -3.870873e+01 -2.882500e+01 3.619398e+00
         vertex -3.964136e+01 -2.882500e+01 -8.049097e-01
      endloop
   endfacet
   facet normal 6.123234e-17 1.000000e+00 1.836970e-16
      outer loop
         vertex -3.964669e+01 -2.882500e+01 3.903926e+00
         vertex -3.964136e+01 -2.882500e+01 -8.049097e-01
         vertex -3.969826e+01 -2.882500e+01 -6.173166e-01
      endloop
   endfacet
   facet normal 6.123234e-17 1.000000e+00 1.836970e-16
      outer loop
         vertex -3.964669e+01 -2.882500e+01 3.903926e+00
         vertex -3.969826e+01 -2.882500e+01 -6.173166e-01
         vertex -3.979067e+01 -2.882500e+01 -4.444298e-01
      endloop
   endfacet
   facet normal 6.123234e-17 1.000000e+00 1.836970e-16
      outer loop
         vertex -3.964669e+01 -2.882500e+01 3.903926e+00
         vertex -3.979067e+01 -2.882500e+01 -4.444298e-01
         vertex -3.991504e+01 -2.882500e+01 -2.928932e-01
      endloop
   endfacet
   facet normal 6.123234e-17 1.000000e+00 1.836970e-16
      outer loop
         vertex -3.964669e+01 -2.882500e+01 3.903926e+00
         vertex -3.991504e+01 -2.882500e+01 -2.928932e-01
         vertex -4.006657e+01 -2.882500e+01 -1.685304e-01
      endloop
   endfacet
   facet normal 6.123234e-17 1.000000e+00 1.836970e-16
      outer loop
         vertex -3.964669e+01 -2.882500e+01 3.903926e+00
         vertex -4.006657e+01 -2.882500e+01 -1.685304e-01
         vertex -4.023946e+01 -2.882500e+01 -7.612047e-02
      endloop
   endfacet
   facet normal 6.123234e-17 1.000000e+00 1.836970e-16
      outer loop
         vertex -3.964669e+01 -2.882500e+01 3.903926e+00
         vertex -4.023946e+01 -2.882500e+01 -7.612047e-02
         vertex -4.042705e+01 -2.882500e+01 -1.921472e-02
      endloop
   endfacet
   facet normal 6.123234e-17 1.000000e+00 1.836970e-16
      outer loop
         vertex -3.964669e+01 -2.882500e+01 3.903926e+00
         vertex -4.042705e+01 -2.882500e+01 -1.921472e-02
         vertex -4.062214e+01 -2.882500e+01 6.936479e-15
      endloop
   endfacet
   facet normal 6.123234e-17 1.000000e+00 1.836970e-16
      outer loop
         vertex -3.964669e+01 -2.882500e+01 3.903926e+00
         vertex -4.062214e+01 -2.882500e+01 6.936479e-15
         vertex -4.062214e+01 -2.882500e+01 4.000000e+00
      endloop
   endfacet
   facet normal 6.123234e-17 1.000000e+00 1.836970e-16
      outer loop
         vertex -4.062214e+01 -2.882500e+01 4.000000e+00
         vertex -4.062214e+01 -2.882500e+01 6.936479e-15
         vertex -4.081723e+01 -2.882500e+01 -1.921472e-02
      endloop
   endfacet
   facet normal 6.123234e-17 1.000000e+00 1.836970e-16
      outer loop
         vertex -4.062214e+01 -2.882500e+01 4.000000e+00
         vertex -4.081723e+01 -2.882500e+01 -1.921472e-02
         vertex -4.100483e+01 -2.882500e+01 -7.612047e-02
      endloop
   endfacet
   facet normal 6.123234e-17 1.000000e+00 1.836970e-16
      outer loop
         vertex -4.062214e+01 -2.882500e+01 4.000000e+00
         vertex -4.100483e+01 -2.882500e+01 -7.612047e-02
         vertex -4.117771e+01 -2.882500e+01 -1.685304e-01
      endloop
   endfacet
   facet normal 6.123234e-17 1.000000e+00 1.836970e-16
      outer loop
         vertex -4.062214e+01 -2.882500e+01 4.000000e+00
         vertex -4.117771e+01 -2.882500e+01 -1.685304e-01
         vertex -4.132925e+01 -2.882500e+01 -2.928932e-01
      endloop
   endfacet
   facet normal 6.123234e-17 1.000000e+00 1.836970e-16
      outer loop
         vertex -4.062214e+01 -2.882500e+01 4.000000e+00
         vertex -4.132925e+01 -2.882500e+01 -2.928932e-01
         vertex -4.145361e+01 -2.882500e+01 -4.444298e-01
      endloop
   endfacet
   facet normal 6.123234e-17 1.000000e+00 1.836970e-16
      outer loop
         vertex -4.062214e+01 -2.882500e+01 4.000000e+00
         vertex -4.145361e+01 -2.882500e+01 -4.444298e-01
         vertex -4.154602e+01 -2.882500e+01 -6.173166e-01
      endloop
   endfacet
   facet normal 6.123234e-17 1.000000e+00 1.836970e-16
      outer loop
         vertex -4.062214e+01 -2.882500e+01 4.000000e+00
         vertex -4.154602e+01 -2.882500e+01 -6.173166e-01
         vertex -4.159759e+01 -2.882500e+01 3.903926e+00
      endloop
   endfacet
   facet normal 6.123234e-17 1.000000e+00 1.836970e-16
      outer loop
         vertex -4.160293e+01 -2.882500e+01 -8.049097e-01
         vertex -4.162214e+01 -2.882500e+01 -1.000000e+00
         vertex -4.159759e+01 -2.882500e+01 3.903926e+00
      endloop
   endfacet
   facet normal 6.123234e-17 1.000000e+00 1.836970e-16
      outer loop
         vertex -4.160293e+01 -2.882500e+01 -8.049097e-01
         vertex -4.159759e+01 -2.882500e+01 3.903926e+00
         vertex -4.154602e+01 -2.882500e+01 -6.173166e-01
      endloop
   endfacet
   facet normal 6.123234e-17 1.000000e+00 1.836970e-16
      outer loop
         vertex -4.562214e+01 -2.882500e+01 -1.000000e+00
         vertex -4.552607e+01 -2.882500e+01 -2.454839e-02
         vertex -4.552607e+01 -2.882500e+01 -1.975452e+00
      endloop
   endfacet
   facet normal 6.123234e-17 1.000000e+00 1.836970e-16
      outer loop
         vertex -4.552607e+01 -2.882500e+01 -2.454839e-02
         vertex -4.524154e+01 -2.882500e+01 9.134172e-01
         vertex -4.552607e+01 -2.882500e+01 -1.975452e+00
      endloop
   endfacet
   facet normal 6.123234e-17 1.000000e+00 1.836970e-16
      outer loop
         vertex -4.552607e+01 -2.882500e+01 -1.975452e+00
         vertex -4.524154e+01 -2.882500e+01 9.134172e-01
         vertex -4.524154e+01 -2.882500e+01 -2.913417e+00
      endloop
   endfacet
   facet normal 6.123234e-17 1.000000e+00 1.836970e-16
      outer loop
         vertex -4.524154e+01 -2.882500e+01 9.134172e-01
         vertex -4.477949e+01 -2.882500e+01 1.777851e+00
         vertex -4.524154e+01 -2.882500e+01 -2.913417e+00
      endloop
   endfacet
   facet normal 6.123234e-17 1.000000e+00 1.836970e-16
      outer loop
         vertex -4.524154e+01 -2.882500e+01 -2.913417e+00
         vertex -4.477949e+01 -2.882500e+01 1.777851e+00
         vertex -4.477949e+01 -2.882500e+01 -3.777851e+00
      endloop
   endfacet
   facet normal 6.123234e-17 1.000000e+00 1.836970e-16
      outer loop
         vertex -4.477949e+01 -2.882500e+01 1.777851e+00
         vertex -4.415768e+01 -2.882500e+01 2.535534e+00
         vertex -4.477949e+01 -2.882500e+01 -3.777851e+00
      endloop
   endfacet
   facet normal 6.123234e-17 1.000000e+00 1.836970e-16
      outer loop
         vertex -4.477949e+01 -2.882500e+01 -3.777851e+00
         vertex -4.415768e+01 -2.882500e+01 2.535534e+00
         vertex -4.415768e+01 -2.882500e+01 -4.535534e+00
      endloop
   endfacet
   facet normal 6.123234e-17 1.000000e+00 1.836970e-16
      outer loop
         vertex -4.415768e+01 -2.882500e+01 2.535534e+00
         vertex -4.339999e+01 -2.882500e+01 3.157348e+00
         vertex -4.415768e+01 -2.882500e+01 -4.535534e+00
      endloop
   endfacet
   facet normal 6.123234e-17 1.000000e+00 1.836970e-16
      outer loop
         vertex -4.415768e+01 -2.882500e+01 -4.535534e+00
         vertex -4.339999e+01 -2.882500e+01 3.157348e+00
         vertex -4.339999e+01 -2.882500e+01 -5.157348e+00
      endloop
   endfacet
   facet normal 6.123234e-17 1.000000e+00 1.836970e-16
      outer loop
         vertex -4.339999e+01 -2.882500e+01 3.157348e+00
         vertex -4.253556e+01 -2.882500e+01 3.619398e+00
         vertex -4.339999e+01 -2.882500e+01 -5.157348e+00
      endloop
   endfacet
   facet normal 6.123234e-17 1.000000e+00 1.836970e-16
      outer loop
         vertex -4.339999e+01 -2.882500e+01 -5.157348e+00
         vertex -4.253556e+01 -2.882500e+01 3.619398e+00
         vertex -4.253556e+01 -2.882500e+01 -5.619398e+00
      endloop
   endfacet
   facet normal 9.801714e-02 -0.000000e+00 -9.951847e-01
      outer loop
         vertex -4.062214e+01 -3.062500e+01 -6.000000e+00
         vertex -4.062214e+01 -2.882500e+01 -6.000000e+00
         vertex -3.964669e+01 -2.882500e+01 -5.903926e+00
      endloop
   endfacet
   facet normal 9.801714e-02 -0.000000e+00 -9.951847e-01
      outer loop
         vertex -4.062214e+01 -3.062500e+01 -6.000000e+00
         vertex -3.964669e+01 -2.882500e+01 -5.903926e+00
         vertex -3.964669e+01 -3.062500e+01 -5.903926e+00
      endloop
   endfacet
   facet normal 2.902847e-01 -0.000000e+00 -9.569403e-01
      outer loop
         vertex -3.964669e+01 -3.062500e+01 -5.903926e+00
         vertex -3.964669e+01 -2.882500e+01 -5.903926e+00
         vertex -3.870873e+01 -2.882500e+01 -5.619398e+00
      endloop
   endfacet
   facet normal 2.902847e-01 -0.000000e+00 -9.569403e-01
      outer loop
         vertex -3.964669e+01 -3.062500e+01 -5.903926e+00
         vertex -3.870873e+01 -2.882500e+01 -5.619398e+00
         vertex -3.870873e+01 -3.062500e+01 -5.619398e+00
      endloop
   endfacet
   facet normal 4.713967e-01 -0.000000e+00 -8.819213e-01
      outer loop
         vertex -3.870873e+01 -3.062500e+01 -5.619398e+00
         vertex -3.870873e+01 -2.882500e+01 -5.619398e+00
         vertex -3.784429e+01 -2.882500e+01 -5.157348e+00
      endloop
   endfacet
   facet normal 4.713967e-01 -0.000000e+00 -8.819213e-01
      outer loop
         vertex -3.870873e+01 -3.062500e+01 -5.619398e+00
         vertex -3.784429e+01 -2.882500e+01 -5.157348e+00
         vertex -3.784429e+01 -3.062500e+01 -5.157348e+00
      endloop
   endfacet
   facet normal 6.343933e-01 -0.000000e+00 -7.730105e-01
      outer loop
         vertex -3.784429e+01 -3.062500e+01 -5.157348e+00
         vertex -3.784429e+01 -2.882500e+01 -5.157348e+00
         vertex -3.708661e+01 -2.882500e+01 -4.535534e+00
      endloop
   endfacet
   facet normal 6.343933e-01 -0.000000e+00 -7.730105e-01
      outer loop
         vertex -3.784429e+01 -3.062500e+01 -5.157348e+00
         vertex -3.708661e+01 -2.882500e+01 -4.535534e+00
         vertex -3.708661e+01 -3.062500e+01 -4.535534e+00
      endloop
   endfacet
   facet normal 7.730105e-01 -0.000000e+00 -6.343933e-01
      outer loop
         vertex -3.708661e+01 -3.062500e+01 -4.535534e+00
         vertex -3.708661e+01 -2.882500e+01 -4.535534e+00
         vertex -3.646479e+01 -2.882500e+01 -3.777851e+00
      endloop
   endfacet
   facet normal 7.730105e-01 -0.000000e+00 -6.343933e-01
      outer loop
         vertex -3.708661e+01 -3.062500e+01 -4.535534e+00
         vertex -3.646479e+01 -2.882500e+01 -3.777851e+00
         vertex -3.646479e+01 -3.062500e+01 -3.777851e+00
      endloop
   endfacet
   facet normal 8.819213e-01 -0.000000e+00 -4.713967e-01
      outer loop
         vertex -3.646479e+01 -3.062500e+01 -3.777851e+00
         vertex -3.646479e+01 -2.882500e+01 -3.777851e+00
         vertex -3.600275e+01 -2.882500e+01 -2.913417e+00
      endloop
   endfacet
   facet normal 8.819213e-01 -0.000000e+00 -4.713967e-01
      outer loop
         vertex -3.646479e+01 -3.062500e+01 -3.777851e+00
         vertex -3.600275e+01 -2.882500e+01 -2.913417e+00
         vertex -3.600275e+01 -3.062500e+01 -2.913417e+00
      endloop
   endfacet
   facet normal 9.569403e-01 -0.000000e+00 -2.902847e-01
      outer loop
         vertex -3.600275e+01 -3.062500e+01 -2.913417e+00
         vertex -3.600275e+01 -2.882500e+01 -2.913417e+00
         vertex -3.571822e+01 -2.882500e+01 -1.975452e+00
      endloop
   endfacet
   facet normal 9.569403e-01 -0.000000e+00 -2.902847e-01
      outer loop
         vertex -3.600275e+01 -3.062500e+01 -2.913417e+00
         vertex -3.571822e+01 -2.882500e+01 -1.975452e+00
         vertex -3.571822e+01 -3.062500e+01 -1.975452e+00
      endloop
   endfacet
   facet normal 9.951847e-01 -0.000000e+00 -9.801714e-02
      outer loop
         vertex -3.571822e+01 -3.062500e+01 -1.975452e+00
         vertex -3.571822e+01 -2.882500e+01 -1.975452e+00
         vertex -3.562214e+01 -2.882500e+01 -1.000000e+00
      endloop
   endfacet
   facet normal 9.951847e-01 -0.000000e+00 -9.801714e-02
      outer loop
         vertex -3.571822e+01 -3.062500e+01 -1.975452e+00
         vertex -3.562214e+01 -2.882500e+01 -1.000000e+00
         vertex -3.562214e+01 -3.062500e+01 -1.000000e+00
      endloop
   endfacet
   facet normal 9.951847e-01 0.000000e+00 9.801714e-02
      outer loop
         vertex -3.562214e+01 -3.062500e+01 -1.000000e+00
         vertex -3.562214e+01 -2.882500e+01 -1.000000e+00
         vertex -3.571822e+01 -2.882500e+01 -2.454839e-02
      endloop
   endfacet
   facet normal 9.951847e-01 0.000000e+00 9.801714e-02
      outer loop
         vertex -3.562214e+01 -3.062500e+01 -1.000000e+00
         vertex -3.571822e+01 -2.882500e+01 -2.454839e-02
         vertex -3.571822e+01 -3.062500e+01 -2.454839e-02
      endloop
   endfacet
   facet normal 9.569403e-01 0.000000e+00 2.902847e-01
      outer loop
         vertex -3.571822e+01 -3.062500e+01 -2.454839e-02
         vertex -3.571822e+01 -2.882500e+01 -2.454839e-02
         vertex -3.600275e+01 -2.882500e+01 9.134172e-01
      endloop
   endfacet
   facet normal 9.569403e-01 0.000000e+00 2.902847e-01
      outer loop
         vertex -3.571822e+01 -3.062500e+01 -2.454839e-02
         vertex -3.600275e+01 -2.882500e+01 9.134172e-01
         vertex -3.600275e+01 -3.062500e+01 9.134172e-01
      endloop
   endfacet
   facet normal 8.819213e-01 0.000000e+00 4.713967e-01
      outer loop
         vertex -3.600275e+01 -3.062500e+01 9.134172e-01
         vertex -3.600275e+01 -2.882500e+01 9.134172e-01
         vertex -3.646479e+01 -2.882500e+01 1.777851e+00
      endloop
   endfacet
   facet normal 8.819213e-01 0.000000e+00 4.713967e-01
      outer loop
         vertex -3.600275e+01 -3.062500e+01 9.134172e-01
         vertex -3.646479e+01 -2.882500e+01 1.777851e+00
         vertex -3.646479e+01 -3.062500e+01 1.777851e+00
      endloop
   endfacet
   facet normal 7.730105e-01 0.000000e+00 6.343933e-01
      outer loop
         vertex -3.646479e+01 -3.062500e+01 1.777851e+00
         vertex -3.646479e+01 -2.882500e+01 1.777851e+00
         vertex -3.708661e+01 -2.882500e+01 2.535534e+00
      endloop
   endfacet
   facet normal 7.730105e-01 0.000000e+00 6.343933e-01
      outer loop
         vertex -3.646479e+01 -3.062500e+01 1.777851e+00
         vertex -3.708661e+01 -2.882500e+01 2.535534e+00
         vertex -3.708661e+01 -3.062500e+01 2.535534e+00
      endloop
   endfacet
   facet normal 6.343933e-01 0.000000e+00 7.730105e-01
      outer loop
         vertex -3.708661e+01 -3.062500e+01 2.535534e+00
         vertex -3.708661e+01 -2.882500e+01 2.535534e+00
         vertex -3.784429e+01 -2.882500e+01 3.157348e+00
      endloop
   endfacet
   facet normal 6.343933e-01 0.000000e+00 7.730105e-01
      outer loop
         vertex -3.708661e+01 -3.062500e+01 2.535534e+00
         vertex -3.784429e+01 -2.882500e+01 3.157348e+00
         vertex -3.784429e+01 -3.062500e+01 3.157348e+00
      endloop
   endfacet
   facet normal 4.713967e-01 0.000000e+00 8.819213e-01
      outer loop
         vertex -3.784429e+01 -3.062500e+01 3.157348e+00
         vertex -3.784429e+01 -2.882500e+01 3.157348e+00
         vertex -3.870873e+01 -2.882500e+01 3.619398e+00
      endloop
   endfacet
   facet normal 4.713967e-01 0.000000e+00 8.819213e-01
      outer loop
         vertex -3.784429e+01 -3.062500e+01 3.157348e+00
         vertex -3.870873e+01 -2.882500e+01 3.619398e+00
         vertex -3.870873e+01 -3.062500e+01 3.619398e+00
      endloop
   endfacet
   facet normal 2.902847e-01 0.000000e+00 9.569403e-01
      outer loop
         vertex -3.870873e+01 -3.062500e+01 3.619398e+00
         vertex -3.870873e+01 -2.882500e+01 3.619398e+00
         vertex -3.964669e+01 -2.882500e+01 3.903926e+00
      endloop
   endfacet
   facet normal 2.902847e-01 0.000000e+00 9.569403e-01
      outer loop
         vertex -3.870873e+01 -3.062500e+01 3.619398e+00
         vertex -3.964669e+01 -2.882500e+01 3.903926e+00
         vertex -3.964669e+01 -3.062500e+01 3.903926e+00
      endloop
   endfacet
   facet normal 9.801714e-02 0.000000e+00 9.951847e-01
      outer loop
         vertex -3.964669e+01 -3.062500e+01 3.903926e+00
         vertex -3.964669e+01 -2.882500e+01 3.903926e+00
         vertex -4.062214e+01 -2.882500e+01 4.000000e+00
      endloop
   endfacet
   facet normal 9.801714e-02 0.000000e+00 9.951847e-01
      outer loop
         vertex -3.964669e+01 -3.062500e+01 3.903926e+00
         vertex -4.062214e+01 -2.882500e+01 4.000000e+00
         vertex -4.062214e+01 -3.062500e+01 4.000000e+00
      endloop
   endfacet
   facet normal -6.123234e-17 -1.000000e+00 -6.123234e-17
      outer loop
         vertex -4.562214e+01 -3.062500e+01 -1.000000e+00
         vertex -4.552607e+01 -3.062500e+01 -1.975452e+00
         vertex -4.552607e+01 -3.062500e+01 -2.454839e-02
      endloop
   endfacet
   facet normal -6.123234e-17 -1.000000e+00 -6.123234e-17
      outer loop
         vertex -4.552607e+01 -3.062500e+01 -1.975452e+00
         vertex -4.524154e+01 -3.062500e+01 -2.913417e+00
         vertex -4.552607e+01 -3.062500e+01 -2.454839e-02
      endloop
   endfacet
   facet normal -6.123234e-17 -1.000000e+00 -6.123234e-17
      outer loop
         vertex -4.552607e+01 -3.062500e+01 -2.454839e-02
         vertex -4.524154e+01 -3.062500e+01 -2.913417e+00
         vertex -4.524154e+01 -3.062500e+01 9.134172e-01
      endloop
   endfacet
   facet normal -6.123234e-17 -1.000000e+00 -6.123234e-17
      outer loop
         vertex -4.524154e+01 -3.062500e+01 -2.913417e+00
         vertex -4.477949e+01 -3.062500e+01 -3.777851e+00
         vertex -4.524154e+01 -3.062500e+01 9.134172e-01
      endloop
   endfacet
   facet normal -6.123234e-17 -1.000000e+00 -6.123234e-17
      outer loop
         vertex -4.524154e+01 -3.062500e+01 9.134172e-01
         vertex -4.477949e+01 -3.062500e+01 -3.777851e+00
         vertex -4.477949e+01 -3.062500e+01 1.777851e+00
      endloop
   endfacet
   facet normal -6.123234e-17 -1.000000e+00 -6.123234e-17
      outer loop
         vertex -4.477949e+01 -3.062500e+01 -3.777851e+00
         vertex -4.415768e+01 -3.062500e+01 -4.535534e+00
         vertex -4.477949e+01 -3.062500e+01 1.777851e+00
      endloop
   endfacet
   facet normal -6.123234e-17 -1.000000e+00 -6.123234e-17
      outer loop
         vertex -4.477949e+01 -3.062500e+01 1.777851e+00
         vertex -4.415768e+01 -3.062500e+01 -4.535534e+00
         vertex -4.415768e+01 -3.062500e+01 2.535534e+00
      endloop
   endfacet
   facet normal -6.123234e-17 -1.000000e+00 -6.123234e-17
      outer loop
         vertex -4.415768e+01 -3.062500e+01 -4.535534e+00
         vertex -4.339999e+01 -3.062500e+01 -5.157348e+00
         vertex -4.415768e+01 -3.062500e+01 2.535534e+00
      endloop
   endfacet
   facet normal -6.123234e-17 -1.000000e+00 -6.123234e-17
      outer loop
         vertex -4.415768e+01 -3.062500e+01 2.535534e+00
         vertex -4.339999e+01 -3.062500e+01 -5.157348e+00
         vertex -4.339999e+01 -3.062500e+01 3.157348e+00
      endloop
   endfacet
   facet normal -6.123234e-17 -1.000000e+00 -6.123234e-17
      outer loop
         vertex -4.339999e+01 -3.062500e+01 -5.157348e+00
         vertex -4.253556e+01 -3.062500e+01 -5.619398e+00
         vertex -4.339999e+01 -3.062500e+01 3.157348e+00
      endloop
   endfacet
   facet normal -6.123234e-17 -1.000000e+00 -6.123234e-17
      outer loop
         vertex -4.339999e+01 -3.062500e+01 3.157348e+00
         vertex -4.253556e+01 -3.062500e+01 -5.619398e+00
         vertex -4.253556e+01 -3.062500e+01 3.619398e+00
      endloop
   endfacet
   facet normal -6.123234e-17 -1.000000e+00 -6.123234e-17
      outer loop
         vertex -4.253556e+01 -3.062500e+01 -5.619398e+00
         vertex -4.162214e+01 -3.062500e+01 -1.000000e+00
         vertex -4.253556e+01 -3.062500e+01 3.619398e+00
      endloop
   endfacet
   facet normal -6.123234e-17 -1.000000e+00 -6.123234e-17
      outer loop
         vertex -4.253556e+01 -3.062500e+01 3.619398e+00
         vertex -4.162214e+01 -3.062500e+01 -1.000000e+00
         vertex -4.160293e+01 -3.062500e+01 -8.049097e-01
      endloop
   endfacet
   facet normal -6.123234e-17 -1.000000e+00 -6.123234e-17
      outer loop
         vertex -4.145361e+01 -3.062500e+01 -1.555570e+00
         vertex -4.154602e+01 -3.062500e+01 -1.382683e+00
         vertex -4.159759e+01 -3.062500e+01 -5.903926e+00
      endloop
   endfacet
   facet normal -6.123234e-17 -1.000000e+00 -6.123234e-17
      outer loop
         vertex -4.154602e+01 -3.062500e+01 -1.382683e+00
         vertex -4.160293e+01 -3.062500e+01 -1.195090e+00
         vertex -4.159759e+01 -3.062500e+01 -5.903926e+00
      endloop
   endfacet
   facet normal -6.123234e-17 -1.000000e+00 -6.123234e-17
      outer loop
         vertex -4.159759e+01 -3.062500e+01 -5.903926e+00
         vertex -4.160293e+01 -3.062500e+01 -1.195090e+00
         vertex -4.253556e+01 -3.062500e+01 -5.619398e+00
      endloop
   endfacet
   facet normal -6.123234e-17 -1.000000e+00 -6.123234e-17
      outer loop
         vertex -4.160293e+01 -3.062500e+01 -1.195090e+00
         vertex -4.162214e+01 -3.062500e+01 -1.000000e+00
         vertex -4.253556e+01 -3.062500e+01 -5.619398e+00
      endloop
   endfacet
   facet normal -6.123234e-17 -1.000000e+00 -6.123234e-17
      outer loop
         vertex -4.159759e+01 -3.062500e+01 -5.903926e+00
         vertex -4.062214e+01 -3.062500e+01 -6.000000e+00
         vertex -4.081723e+01 -3.062500e+01 -1.980785e+00
      endloop
   endfacet
   facet normal -6.123234e-17 -1.000000e+00 -6.123234e-17
      outer loop
         vertex -4.159759e+01 -3.062500e+01 -5.903926e+00
         vertex -4.081723e+01 -3.062500e+01 -1.980785e+00
         vertex -4.100483e+01 -3.062500e+01 -1.923880e+00
      endloop
   endfacet
   facet normal -6.123234e-17 -1.000000e+00 -6.123234e-17
      outer loop
         vertex -4.159759e+01 -3.062500e+01 -5.903926e+00
         vertex -4.100483e+01 -3.062500e+01 -1.923880e+00
         vertex -4.117771e+01 -3.062500e+01 -1.831470e+00
      endloop
   endfacet
   facet normal -6.123234e-17 -1.000000e+00 -6.123234e-17
      outer loop
         vertex -4.159759e+01 -3.062500e+01 -5.903926e+00
         vertex -4.117771e+01 -3.062500e+01 -1.831470e+00
         vertex -4.132925e+01 -3.062500e+01 -1.707107e+00
      endloop
   endfacet
   facet normal -6.123234e-17 -1.000000e+00 -6.123234e-17
      outer loop
         vertex -4.159759e+01 -3.062500e+01 -5.903926e+00
         vertex -4.132925e+01 -3.062500e+01 -1.707107e+00
         vertex -4.145361e+01 -3.062500e+01 -1.555570e+00
      endloop
   endfacet
   facet normal -6.123234e-17 -1.000000e+00 -6.123234e-17
      outer loop
         vertex -4.062214e+01 -3.062500e+01 -6.000000e+00
         vertex -3.964669e+01 -3.062500e+01 -5.903926e+00
         vertex -3.969826e+01 -3.062500e+01 -1.382683e+00
      endloop
   endfacet
   facet normal -6.123234e-17 -1.000000e+00 -6.123234e-17
      outer loop
         vertex -4.062214e+01 -3.062500e+01 -6.000000e+00
         vertex -3.969826e+01 -3.062500e+01 -1.382683e+00
         vertex -3.979067e+01 -3.062500e+01 -1.555570e+00
      endloop
   endfacet
   facet normal -6.123234e-17 -1.000000e+00 -6.123234e-17
      outer loop
         vertex -4.062214e+01 -3.062500e+01 -6.000000e+00
         vertex -3.979067e+01 -3.062500e+01 -1.555570e+00
         vertex -3.991504e+01 -3.062500e+01 -1.707107e+00
      endloop
   endfacet
   facet normal -6.123234e-17 -1.000000e+00 -6.123234e-17
      outer loop
         vertex -4.062214e+01 -3.062500e+01 -6.000000e+00
         vertex -3.991504e+01 -3.062500e+01 -1.707107e+00
         vertex -4.006657e+01 -3.062500e+01 -1.831470e+00
      endloop
   endfacet
   facet normal -6.123234e-17 -1.000000e+00 -6.123234e-17
      outer loop
         vertex -4.062214e+01 -3.062500e+01 -6.000000e+00
         vertex -4.006657e+01 -3.062500e+01 -1.831470e+00
         vertex -4.023946e+01 -3.062500e+01 -1.923880e+00
      endloop
   endfacet
   facet normal -6.123234e-17 -1.000000e+00 -6.123234e-17
      outer loop
         vertex -4.062214e+01 -3.062500e+01 -6.000000e+00
         vertex -4.023946e+01 -3.062500e+01 -1.923880e+00
         vertex -4.042705e+01 -3.062500e+01 -1.980785e+00
      endloop
   endfacet
   facet normal -6.123234e-17 -1.000000e+00 -6.123234e-17
      outer loop
         vertex -4.062214e+01 -3.062500e+01 -6.000000e+00
         vertex -4.042705e+01 -3.062500e+01 -1.980785e+00
         vertex -4.062214e+01 -3.062500e+01 -2.000000e+00
      endloop
   endfacet
   facet normal -6.123234e-17 -1.000000e+00 -6.123234e-17
      outer loop
         vertex -4.062214e+01 -3.062500e+01 -6.000000e+00
         vertex -4.062214e+01 -3.062500e+01 -2.000000e+00
         vertex -4.081723e+01 -3.062500e+01 -1.980785e+00
      endloop
   endfacet
   facet normal -6.123234e-17 -1.000000e+00 -6.123234e-17
      outer loop
         vertex -3.870873e+01 -3.062500e+01 3.619398e+00
         vertex -3.964669e+01 -3.062500e+01 3.903926e+00
         vertex -3.870873e+01 -3.062500e+01 -5.619398e+00
      endloop
   endfacet
   facet normal -6.123234e-17 -1.000000e+00 -6.123234e-17
      outer loop
         vertex -3.964669e+01 -3.062500e+01 3.903926e+00
         vertex -3.962214e+01 -3.062500e+01 -1.000000e+00
         vertex -3.870873e+01 -3.062500e+01 -5.619398e+00
      endloop
   endfacet
   facet normal -6.123234e-17 -1.000000e+00 -6.123234e-17
      outer loop
         vertex -3.870873e+01 -3.062500e+01 -5.619398e+00
         vertex -3.962214e+01 -3.062500e+01 -1.000000e+00
         vertex -3.964669e+01 -3.062500e+01 -5.903926e+00
      endloop
   endfacet
   facet normal -6.123234e-17 -1.000000e+00 -6.123234e-17
      outer loop
         vertex -3.962214e+01 -3.062500e+01 -1.000000e+00
         vertex -3.964136e+01 -3.062500e+01 -1.195090e+00
         vertex -3.964669e+01 -3.062500e+01 -5.903926e+00
      endloop
   endfacet
   facet normal -6.123234e-17 -1.000000e+00 -6.123234e-17
      outer loop
         vertex -3.964669e+01 -3.062500e+01 -5.903926e+00
         vertex -3.964136e+01 -3.062500e+01 -1.195090e+00
         vertex -3.969826e+01 -3.062500e+01 -1.382683e+00
      endloop
   endfacet
   facet normal -6.123234e-17 -1.000000e+00 -6.123234e-17
      outer loop
         vertex -4.159759e+01 -3.062500e+01 3.903926e+00
         vertex -4.253556e+01 -3.062500e+01 3.619398e+00
         vertex -4.160293e+01 -3.062500e+01 -8.049097e-01
      endloop
   endfacet
   facet normal -6.123234e-17 -1.000000e+00 -6.123234e-17
      outer loop
         vertex -4.159759e+01 -3.062500e+01 3.903926e+00
         vertex -4.160293e+01 -3.062500e+01 -8.049097e-01
         vertex -4.154602e+01 -3.062500e+01 -6.173166e-01
      endloop
   endfacet
   facet normal -6.123234e-17 -1.000000e+00 -6.123234e-17
      outer loop
         vertex -4.159759e+01 -3.062500e+01 3.903926e+00
         vertex -4.154602e+01 -3.062500e+01 -6.173166e-01
         vertex -4.145361e+01 -3.062500e+01 -4.444298e-01
      endloop
   endfacet
   facet normal -6.123234e-17 -1.000000e+00 -6.123234e-17
      outer loop
         vertex -4.159759e+01 -3.062500e+01 3.903926e+00
         vertex -4.145361e+01 -3.062500e+01 -4.444298e-01
         vertex -4.132925e+01 -3.062500e+01 -2.928932e-01
      endloop
   endfacet
   facet normal -6.123234e-17 -1.000000e+00 -6.123234e-17
      outer loop
         vertex -4.159759e+01 -3.062500e+01 3.903926e+00
         vertex -4.132925e+01 -3.062500e+01 -2.928932e-01
         vertex -4.117771e+01 -3.062500e+01 -1.685304e-01
      endloop
   endfacet
   facet normal -6.123234e-17 -1.000000e+00 -6.123234e-17
      outer loop
         vertex -4.159759e+01 -3.062500e+01 3.903926e+00
         vertex -4.117771e+01 -3.062500e+01 -1.685304e-01
         vertex -4.100483e+01 -3.062500e+01 -7.612047e-02
      endloop
   endfacet
   facet normal -6.123234e-17 -1.000000e+00 -6.123234e-17
      outer loop
         vertex -4.159759e+01 -3.062500e+01 3.903926e+00
         vertex -4.100483e+01 -3.062500e+01 -7.612047e-02
         vertex -4.081723e+01 -3.062500e+01 -1.921472e-02
      endloop
   endfacet
   facet normal -6.123234e-17 -1.000000e+00 -6.123234e-17
      outer loop
         vertex -4.159759e+01 -3.062500e+01 3.903926e+00
         vertex -4.081723e+01 -3.062500e+01 -1.921472e-02
         vertex -4.062214e+01 -3.062500e+01 6.507920e-15
      endloop
   endfacet
   facet normal -6.123234e-17 -1.000000e+00 -6.123234e-17
      outer loop
         vertex -4.159759e+01 -3.062500e+01 3.903926e+00
         vertex -4.062214e+01 -3.062500e+01 6.507920e-15
         vertex -4.062214e+01 -3.062500e+01 4.000000e+00
      endloop
   endfacet
   facet normal -6.123234e-17 -1.000000e+00 -6.123234e-17
      outer loop
         vertex -4.062214e+01 -3.062500e+01 4.000000e+00
         vertex -4.062214e+01 -3.062500e+01 6.507920e-15
         vertex -4.042705e+01 -3.062500e+01 -1.921472e-02
      endloop
   endfacet
   facet normal -6.123234e-17 -1.000000e+00 -6.123234e-17
      outer loop
         vertex -4.062214e+01 -3.062500e+01 4.000000e+00
         vertex -4.042705e+01 -3.062500e+01 -1.921472e-02
         vertex -4.023946e+01 -3.062500e+01 -7.612047e-02
      endloop
   endfacet
   facet normal -6.123234e-17 -1.000000e+00 -6.123234e-17
      outer loop
         vertex -4.062214e+01 -3.062500e+01 4.000000e+00
         vertex -4.023946e+01 -3.062500e+01 -7.612047e-02
         vertex -4.006657e+01 -3.062500e+01 -1.685304e-01
      endloop
   endfacet
   facet normal -6.123234e-17 -1.000000e+00 -6.123234e-17
      outer loop
         vertex -4.062214e+01 -3.062500e+01 4.000000e+00
         vertex -4.006657e+01 -3.062500e+01 -1.685304e-01
         vertex -3.991504e+01 -3.062500e+01 -2.928932e-01
      endloop
   endfacet
   facet normal -6.123234e-17 -1.000000e+00 -6.123234e-17
      outer loop
         vertex -4.062214e+01 -3.062500e+01 4.000000e+00
         vertex -3.991504e+01 -3.062500e+01 -2.928932e-01
         vertex -3.979067e+01 -3.062500e+01 -4.444298e-01
      endloop
   endfacet
   facet normal -6.123234e-17 -1.000000e+00 -6.123234e-17
      outer loop
         vertex -4.062214e+01 -3.062500e+01 4.000000e+00
         vertex -3.979067e+01 -3.062500e+01 -4.444298e-01
         vertex -3.969826e+01 -3.062500e+01 -6.173166e-01
      endloop
   endfacet
   facet normal -6.123234e-17 -1.000000e+00 -6.123234e-17
      outer loop
         vertex -4.062214e+01 -3.062500e+01 4.000000e+00
         vertex -3.969826e+01 -3.062500e+01 -6.173166e-01
         vertex -3.964669e+01 -3.062500e+01 3.903926e+00
      endloop
   endfacet
   facet normal -6.123234e-17 -1.000000e+00 -6.123234e-17
      outer loop
         vertex -3.964136e+01 -3.062500e+01 -8.049097e-01
         vertex -3.962214e+01 -3.062500e+01 -1.000000e+00
         vertex -3.964669e+01 -3.062500e+01 3.903926e+00
      endloop
   endfacet
   facet normal -6.123234e-17 -1.000000e+00 -6.123234e-17
      outer loop
         vertex -3.964136e+01 -3.062500e+01 -8.049097e-01
         vertex -3.964669e+01 -3.062500e+01 3.903926e+00
         vertex -3.969826e+01 -3.062500e+01 -6.173166e-01
      endloop
   endfacet
   facet normal -6.123234e-17 -1.000000e+00 -6.123234e-17
      outer loop
         vertex -3.562214e+01 -3.062500e+01 -1.000000e+00
         vertex -3.571822e+01 -3.062500e+01 -2.454839e-02
         vertex -3.571822e+01 -3.062500e+01 -1.975452e+00
      endloop
   endfacet
   facet normal -6.123234e-17 -1.000000e+00 -6.123234e-17
      outer loop
         vertex -3.571822e+01 -3.062500e+01 -2.454839e-02
         vertex -3.600275e+01 -3.062500e+01 9.134172e-01
         vertex -3.571822e+01 -3.062500e+01 -1.975452e+00
      endloop
   endfacet
   facet normal -6.123234e-17 -1.000000e+00 -6.123234e-17
      outer loop
         vertex -3.571822e+01 -3.062500e+01 -1.975452e+00
         vertex -3.600275e+01 -3.062500e+01 9.134172e-01
         vertex -3.600275e+01 -3.062500e+01 -2.913417e+00
      endloop
   endfacet
   facet normal -6.123234e-17 -1.000000e+00 -6.123234e-17
      outer loop
         vertex -3.600275e+01 -3.062500e+01 9.134172e-01
         vertex -3.646479e+01 -3.062500e+01 1.777851e+00
         vertex -3.600275e+01 -3.062500e+01 -2.913417e+00
      endloop
   endfacet
   facet normal -6.123234e-17 -1.000000e+00 -6.123234e-17
      outer loop
         vertex -3.600275e+01 -3.062500e+01 -2.913417e+00
         vertex -3.646479e+01 -3.062500e+01 1.777851e+00
         vertex -3.646479e+01 -3.062500e+01 -3.777851e+00
      endloop
   endfacet
   facet normal -6.123234e-17 -1.000000e+00 -6.123234e-17
      outer loop
         vertex -3.646479e+01 -3.062500e+01 1.777851e+00
         vertex -3.708661e+01 -3.062500e+01 2.535534e+00
         vertex -3.646479e+01 -3.062500e+01 -3.777851e+00
      endloop
   endfacet
   facet normal -6.123234e-17 -1.000000e+00 -6.123234e-17
      outer loop
         vertex -3.646479e+01 -3.062500e+01 -3.777851e+00
         vertex -3.708661e+01 -3.062500e+01 2.535534e+00
         vertex -3.708661e+01 -3.062500e+01 -4.535534e+00
      endloop
   endfacet
   facet normal -6.123234e-17 -1.000000e+00 -6.123234e-17
      outer loop
         vertex -3.708661e+01 -3.062500e+01 2.535534e+00
         vertex -3.784429e+01 -3.062500e+01 3.157348e+00
         vertex -3.708661e+01 -3.062500e+01 -4.535534e+00
      endloop
   endfacet
   facet normal -6.123234e-17 -1.000000e+00 -6.123234e-17
      outer loop
         vertex -3.708661e+01 -3.062500e+01 -4.535534e+00
         vertex -3.784429e+01 -3.062500e+01 3.157348e+00
         vertex -3.784429e+01 -3.062500e+01 -5.157348e+00
      endloop
   endfacet
   facet normal -6.123234e-17 -1.000000e+00 -6.123234e-17
      outer loop
         vertex -3.784429e+01 -3.062500e+01 3.157348e+00
         vertex -3.870873e+01 -3.062500e+01 3.619398e+00
         vertex -3.784429e+01 -3.062500e+01 -5.157348e+00
      endloop
   endfacet
   facet normal -6.123234e-17 -1.000000e+00 -6.123234e-17
      outer loop
         vertex -3.784429e+01 -3.062500e+01 -5.157348e+00
         vertex -3.870873e+01 -3.062500e+01 3.619398e+00
         vertex -3.870873e+01 -3.062500e+01 -5.619398e+00
      endloop
   endfacet
   facet normal 9.801714e-02 -0.000000e+00 9.951847e-01
      outer loop
         vertex -4.081723e+01 -3.062500e+01 -1.980785e+00
         vertex -4.062214e+01 -2.882500e+01 -2.000000e+00
         vertex -4.081723e+01 -2.882500e+01 -1.980785e+00
      endloop
   endfacet
   facet normal 9.801714e-02 -0.000000e+00 9.951847e-01
      outer loop
         vertex -4.081723e+01 -3.062500e+01 -1.980785e+00
         vertex -4.062214e+01 -3.062500e+01 -2.000000e+00
         vertex -4.062214e+01 -2.882500e+01 -2.000000e+00
      endloop
   endfacet
   facet normal 2.902847e-01 -0.000000e+00 9.569403e-01
      outer loop
         vertex -4.100483e+01 -3.062500e+01 -1.923880e+00
         vertex -4.081723e+01 -2.882500e+01 -1.980785e+00
         vertex -4.100483e+01 -2.882500e+01 -1.923880e+00
      endloop
   endfacet
   facet normal 2.902847e-01 -0.000000e+00 9.569403e-01
      outer loop
         vertex -4.100483e+01 -3.062500e+01 -1.923880e+00
         vertex -4.081723e+01 -3.062500e+01 -1.980785e+00
         vertex -4.081723e+01 -2.882500e+01 -1.980785e+00
      endloop
   endfacet
   facet normal 4.713967e-01 -0.000000e+00 8.819213e-01
      outer loop
         vertex -4.117771e+01 -3.062500e+01 -1.831470e+00
         vertex -4.100483e+01 -2.882500e+01 -1.923880e+00
         vertex -4.117771e+01 -2.882500e+01 -1.831470e+00
      endloop
   endfacet
   facet normal 4.713967e-01 -0.000000e+00 8.819213e-01
      outer loop
         vertex -4.117771e+01 -3.062500e+01 -1.831470e+00
         vertex -4.100483e+01 -3.062500e+01 -1.923880e+00
         vertex -4.100483e+01 -2.882500e+01 -1.923880e+00
      endloop
   endfacet
   facet normal 6.343933e-01 -0.000000e+00 7.730105e-01
      outer loop
         vertex -4.132925e+01 -3.062500e+01 -1.707107e+00
         vertex -4.117771e+01 -2.882500e+01 -1.831470e+00
         vertex -4.132925e+01 -2.882500e+01 -1.707107e+00
      endloop
   endfacet
   facet normal 6.343933e-01 -0.000000e+00 7.730105e-01
      outer loop
         vertex -4.132925e+01 -3.062500e+01 -1.707107e+00
         vertex -4.117771e+01 -3.062500e+01 -1.831470e+00
         vertex -4.117771e+01 -2.882500e+01 -1.831470e+00
      endloop
   endfacet
   facet normal 7.730105e-01 -0.000000e+00 6.343933e-01
      outer loop
         vertex -4.145361e+01 -3.062500e+01 -1.555570e+00
         vertex -4.132925e+01 -2.882500e+01 -1.707107e+00
         vertex -4.145361e+01 -2.882500e+01 -1.555570e+00
      endloop
   endfacet
   facet normal 7.730105e-01 -0.000000e+00 6.343933e-01
      outer loop
         vertex -4.145361e+01 -3.062500e+01 -1.555570e+00
         vertex -4.132925e+01 -3.062500e+01 -1.707107e+00
         vertex -4.132925e+01 -2.882500e+01 -1.707107e+00
      endloop
   endfacet
   facet normal 8.819213e-01 -0.000000e+00 4.713967e-01
      outer loop
         vertex -4.154602e+01 -3.062500e+01 -1.382683e+00
         vertex -4.145361e+01 -2.882500e+01 -1.555570e+00
         vertex -4.154602e+01 -2.882500e+01 -1.382683e+00
      endloop
   endfacet
   facet normal 8.819213e-01 -0.000000e+00 4.713967e-01
      outer loop
         vertex -4.154602e+01 -3.062500e+01 -1.382683e+00
         vertex -4.145361e+01 -3.062500e+01 -1.555570e+00
         vertex -4.145361e+01 -2.882500e+01 -1.555570e+00
      endloop
   endfacet
   facet normal 9.569403e-01 -0.000000e+00 2.902847e-01
      outer loop
         vertex -4.160293e+01 -3.062500e+01 -1.195090e+00
         vertex -4.154602e+01 -2.882500e+01 -1.382683e+00
         vertex -4.160293e+01 -2.882500e+01 -1.195090e+00
      endloop
   endfacet
   facet normal 9.569403e-01 -0.000000e+00 2.902847e-01
      outer loop
         vertex -4.160293e+01 -3.062500e+01 -1.195090e+00
         vertex -4.154602e+01 -3.062500e+01 -1.382683e+00
         vertex -4.154602e+01 -2.882500e+01 -1.382683e+00
      endloop
   endfacet
   facet normal 9.951847e-01 -0.000000e+00 9.801714e-02
      outer loop
         vertex -4.162214e+01 -3.062500e+01 -1.000000e+00
         vertex -4.160293e+01 -2.882500e+01 -1.195090e+00
         vertex -4.162214e+01 -2.882500e+01 -1.000000e+00
      endloop
   endfacet
   facet normal 9.951847e-01 -0.000000e+00 9.801714e-02
      outer loop
         vertex -4.162214e+01 -3.062500e+01 -1.000000e+00
         vertex -4.160293e+01 -3.062500e+01 -1.195090e+00
         vertex -4.160293e+01 -2.882500e+01 -1.195090e+00
      endloop
   endfacet
   facet normal 9.951847e-01 0.000000e+00 -9.801714e-02
      outer loop
         vertex -4.160293e+01 -3.062500e+01 -8.049097e-01
         vertex -4.162214e+01 -2.882500e+01 -1.000000e+00
         vertex -4.160293e+01 -2.882500e+01 -8.049097e-01
      endloop
   endfacet
   facet normal 9.951847e-01 0.000000e+00 -9.801714e-02
      outer loop
         vertex -4.160293e+01 -3.062500e+01 -8.049097e-01
         vertex -4.162214e+01 -3.062500e+01 -1.000000e+00
         vertex -4.162214e+01 -2.882500e+01 -1.000000e+00
      endloop
   endfacet
   facet normal 9.569403e-01 0.000000e+00 -2.902847e-01
      outer loop
         vertex -4.154602e+01 -3.062500e+01 -6.173166e-01
         vertex -4.160293e+01 -2.882500e+01 -8.049097e-01
         vertex -4.154602e+01 -2.882500e+01 -6.173166e-01
      endloop
   endfacet
   facet normal 9.569403e-01 0.000000e+00 -2.902847e-01
      outer loop
         vertex -4.154602e+01 -3.062500e+01 -6.173166e-01
         vertex -4.160293e+01 -3.062500e+01 -8.049097e-01
         vertex -4.160293e+01 -2.882500e+01 -8.049097e-01
      endloop
   endfacet
   facet normal 8.819213e-01 2.616778e-17 -4.713967e-01
      outer loop
         vertex -4.145361e+01 -3.062500e+01 -4.444298e-01
         vertex -4.154602e+01 -2.882500e+01 -6.173166e-01
         vertex -4.145361e+01 -2.882500e+01 -4.444298e-01
      endloop
   endfacet
   facet normal 8.819213e-01 2.616778e-17 -4.713967e-01
      outer loop
         vertex -4.145361e+01 -3.062500e+01 -4.444298e-01
         vertex -4.154602e+01 -3.062500e+01 -6.173166e-01
         vertex -4.154602e+01 -2.882500e+01 -6.173166e-01
      endloop
   endfacet
   facet normal 7.730105e-01 7.043180e-17 -6.343933e-01
      outer loop
         vertex -4.132925e+01 -3.062500e+01 -2.928932e-01
         vertex -4.145361e+01 -2.882500e+01 -4.444298e-01
         vertex -4.132925e+01 -2.882500e+01 -2.928932e-01
      endloop
   endfacet
   facet normal 7.730105e-01 7.043180e-17 -6.343933e-01
      outer loop
         vertex -4.132925e+01 -3.062500e+01 -2.928932e-01
         vertex -4.145361e+01 -3.062500e+01 -4.444298e-01
         vertex -4.145361e+01 -2.882500e+01 -4.444298e-01
      endloop
   endfacet
   facet normal 6.343933e-01 1.287321e-16 -7.730105e-01
      outer loop
         vertex -4.117771e+01 -3.062500e+01 -1.685304e-01
         vertex -4.132925e+01 -2.882500e+01 -2.928932e-01
         vertex -4.117771e+01 -2.882500e+01 -1.685304e-01
      endloop
   endfacet
   facet normal 6.343933e-01 1.287321e-16 -7.730105e-01
      outer loop
         vertex -4.117771e+01 -3.062500e+01 -1.685304e-01
         vertex -4.132925e+01 -3.062500e+01 -2.928932e-01
         vertex -4.132925e+01 -2.882500e+01 -2.928932e-01
      endloop
   endfacet
   facet normal 4.713967e-01 1.958259e-16 -8.819213e-01
      outer loop
         vertex -4.100483e+01 -3.062500e+01 -7.612047e-02
         vertex -4.117771e+01 -2.882500e+01 -1.685304e-01
         vertex -4.100483e+01 -2.882500e+01 -7.612047e-02
      endloop
   endfacet
   facet normal 4.713967e-01 1.958259e-16 -8.819213e-01
      outer loop
         vertex -4.100483e+01 -3.062500e+01 -7.612047e-02
         vertex -4.117771e+01 -3.062500e+01 -1.685304e-01
         vertex -4.117771e+01 -2.882500e+01 -1.685304e-01
      endloop
   endfacet
   facet normal 2.902847e-01 1.593626e-16 -9.569403e-01
      outer loop
         vertex -4.081723e+01 -3.062500e+01 -1.921472e-02
         vertex -4.100483e+01 -2.882500e+01 -7.612047e-02
         vertex -4.081723e+01 -2.882500e+01 -1.921472e-02
      endloop
   endfacet
   facet normal 2.902847e-01 1.593626e-16 -9.569403e-01
      outer loop
         vertex -4.081723e+01 -3.062500e+01 -1.921472e-02
         vertex -4.100483e+01 -3.062500e+01 -7.612047e-02
         vertex -4.100483e+01 -2.882500e+01 -7.612047e-02
      endloop
   endfacet
   facet normal 9.801714e-02 1.657315e-16 -9.951847e-01
      outer loop
         vertex -4.062214e+01 -3.062500e+01 5.329071e-15
         vertex -4.081723e+01 -2.882500e+01 -1.921472e-02
         vertex -4.062214e+01 -2.882500e+01 6.930928e-15
      endloop
   endfacet
   facet normal 9.801714e-02 1.657315e-16 -9.951847e-01
      outer loop
         vertex -4.062214e+01 -3.062500e+01 5.329071e-15
         vertex -4.081723e+01 -3.062500e+01 -1.921472e-02
         vertex -4.081723e+01 -2.882500e+01 -1.921472e-02
      endloop
   endfacet
   facet normal -9.801714e-02 -5.524385e-17 -9.951847e-01
      outer loop
         vertex -4.042705e+01 -3.062500e+01 -1.921472e-02
         vertex -4.062214e+01 -2.882500e+01 7.110978e-15
         vertex -4.042705e+01 -2.882500e+01 -1.921472e-02
      endloop
   endfacet
   facet normal -9.801714e-02 -5.524385e-17 -9.951847e-01
      outer loop
         vertex -4.042705e+01 -3.062500e+01 -1.921472e-02
         vertex -4.062214e+01 -3.062500e+01 7.216450e-15
         vertex -4.062214e+01 -2.882500e+01 7.110978e-15
      endloop
   endfacet
   facet normal -2.902847e-01 0.000000e+00 -9.569403e-01
      outer loop
         vertex -4.023946e+01 -3.062500e+01 -7.612047e-02
         vertex -4.042705e+01 -2.882500e+01 -1.921472e-02
         vertex -4.023946e+01 -2.882500e+01 -7.612047e-02
      endloop
   endfacet
   facet normal -2.902847e-01 0.000000e+00 -9.569403e-01
      outer loop
         vertex -4.023946e+01 -3.062500e+01 -7.612047e-02
         vertex -4.042705e+01 -3.062500e+01 -1.921472e-02
         vertex -4.042705e+01 -2.882500e+01 -1.921472e-02
      endloop
   endfacet
   facet normal -4.713967e-01 4.895646e-17 -8.819213e-01
      outer loop
         vertex -4.006657e+01 -3.062500e+01 -1.685304e-01
         vertex -4.023946e+01 -2.882500e+01 -7.612047e-02
         vertex -4.006657e+01 -2.882500e+01 -1.685304e-01
      endloop
   endfacet
   facet normal -4.713967e-01 4.895646e-17 -8.819213e-01
      outer loop
         vertex -4.006657e+01 -3.062500e+01 -1.685304e-01
         vertex -4.023946e+01 -3.062500e+01 -7.612047e-02
         vertex -4.023946e+01 -2.882500e+01 -7.612047e-02
      endloop
   endfacet
   facet normal -6.343933e-01 8.582140e-17 -7.730105e-01
      outer loop
         vertex -3.991504e+01 -3.062500e+01 -2.928932e-01
         vertex -4.006657e+01 -2.882500e+01 -1.685304e-01
         vertex -3.991504e+01 -2.882500e+01 -2.928932e-01
      endloop
   endfacet
   facet normal -6.343933e-01 8.582140e-17 -7.730105e-01
      outer loop
         vertex -3.991504e+01 -3.062500e+01 -2.928932e-01
         vertex -4.006657e+01 -3.062500e+01 -1.685304e-01
         vertex -4.006657e+01 -2.882500e+01 -1.685304e-01
      endloop
   endfacet
   facet normal -7.730105e-01 7.043180e-17 -6.343933e-01
      outer loop
         vertex -3.979067e+01 -3.062500e+01 -4.444298e-01
         vertex -3.991504e+01 -2.882500e+01 -2.928932e-01
         vertex -3.979067e+01 -2.882500e+01 -4.444298e-01
      endloop
   endfacet
   facet normal -7.730105e-01 7.043180e-17 -6.343933e-01
      outer loop
         vertex -3.979067e+01 -3.062500e+01 -4.444298e-01
         vertex -3.991504e+01 -3.062500e+01 -2.928932e-01
         vertex -3.991504e+01 -2.882500e+01 -2.928932e-01
      endloop
   endfacet
   facet normal -8.819213e-01 5.233555e-17 -4.713967e-01
      outer loop
         vertex -3.969826e+01 -3.062500e+01 -6.173166e-01
         vertex -3.979067e+01 -2.882500e+01 -4.444298e-01
         vertex -3.969826e+01 -2.882500e+01 -6.173166e-01
      endloop
   endfacet
   facet normal -8.819213e-01 5.233555e-17 -4.713967e-01
      outer loop
         vertex -3.969826e+01 -3.062500e+01 -6.173166e-01
         vertex -3.979067e+01 -3.062500e+01 -4.444298e-01
         vertex -3.979067e+01 -2.882500e+01 -4.444298e-01
      endloop
   endfacet
   facet normal -9.569403e-01 4.834211e-17 -2.902847e-01
      outer loop
         vertex -3.964136e+01 -3.062500e+01 -8.049097e-01
         vertex -3.969826e+01 -2.882500e+01 -6.173166e-01
         vertex -3.964136e+01 -2.882500e+01 -8.049097e-01
      endloop
   endfacet
   facet normal -9.569403e-01 4.834211e-17 -2.902847e-01
      outer loop
         vertex -3.964136e+01 -3.062500e+01 -8.049097e-01
         vertex -3.969826e+01 -3.062500e+01 -6.173166e-01
         vertex -3.969826e+01 -2.882500e+01 -6.173166e-01
      endloop
   endfacet
   facet normal -9.951847e-01 1.632313e-17 -9.801714e-02
      outer loop
         vertex -3.962214e+01 -3.062500e+01 -1.000000e+00
         vertex -3.964136e+01 -2.882500e+01 -8.049097e-01
         vertex -3.962214e+01 -2.882500e+01 -1.000000e+00
      endloop
   endfacet
   facet normal -9.951847e-01 1.632313e-17 -9.801714e-02
      outer loop
         vertex -3.962214e+01 -3.062500e+01 -1.000000e+00
         vertex -3.964136e+01 -3.062500e+01 -8.049097e-01
         vertex -3.964136e+01 -2.882500e+01 -8.049097e-01
      endloop
   endfacet
   facet normal -9.951847e-01 -1.632313e-17 9.801714e-02
      outer loop
         vertex -3.964136e+01 -3.062500e+01 -1.195090e+00
         vertex -3.962214e+01 -2.882500e+01 -1.000000e+00
         vertex -3.964136e+01 -2.882500e+01 -1.195090e+00
      endloop
   endfacet
   facet normal -9.951847e-01 -1.632313e-17 9.801714e-02
      outer loop
         vertex -3.964136e+01 -3.062500e+01 -1.195090e+00
         vertex -3.962214e+01 -3.062500e+01 -1.000000e+00
         vertex -3.962214e+01 -2.882500e+01 -1.000000e+00
      endloop
   endfacet
   facet normal -9.569403e-01 -6.445615e-17 2.902847e-01
      outer loop
         vertex -3.969826e+01 -3.062500e+01 -1.382683e+00
         vertex -3.964136e+01 -2.882500e+01 -1.195090e+00
         vertex -3.969826e+01 -2.882500e+01 -1.382683e+00
      endloop
   endfacet
   facet normal -9.569403e-01 -6.445615e-17 2.902847e-01
      outer loop
         vertex -3.969826e+01 -3.062500e+01 -1.382683e+00
         vertex -3.964136e+01 -3.062500e+01 -1.195090e+00
         vertex -3.964136e+01 -2.882500e+01 -1.195090e+00
      endloop
   endfacet
   facet normal -8.819213e-01 -1.046711e-16 4.713967e-01
      outer loop
         vertex -3.979067e+01 -3.062500e+01 -1.555570e+00
         vertex -3.969826e+01 -2.882500e+01 -1.382683e+00
         vertex -3.979067e+01 -2.882500e+01 -1.555570e+00
      endloop
   endfacet
   facet normal -8.819213e-01 -1.046711e-16 4.713967e-01
      outer loop
         vertex -3.979067e+01 -3.062500e+01 -1.555570e+00
         vertex -3.969826e+01 -3.062500e+01 -1.382683e+00
         vertex -3.969826e+01 -2.882500e+01 -1.382683e+00
      endloop
   endfacet
   facet normal -7.730105e-01 -1.408636e-16 6.343933e-01
      outer loop
         vertex -3.991504e+01 -3.062500e+01 -1.707107e+00
         vertex -3.979067e+01 -2.882500e+01 -1.555570e+00
         vertex -3.991504e+01 -2.882500e+01 -1.707107e+00
      endloop
   endfacet
   facet normal -7.730105e-01 -1.408636e-16 6.343933e-01
      outer loop
         vertex -3.991504e+01 -3.062500e+01 -1.707107e+00
         vertex -3.979067e+01 -3.062500e+01 -1.555570e+00
         vertex -3.979067e+01 -2.882500e+01 -1.555570e+00
      endloop
   endfacet
   facet normal -6.343933e-01 -8.582140e-17 7.730105e-01
      outer loop
         vertex -4.006657e+01 -3.062500e+01 -1.831470e+00
         vertex -3.991504e+01 -2.882500e+01 -1.707107e+00
         vertex -4.006657e+01 -2.882500e+01 -1.831470e+00
      endloop
   endfacet
   facet normal -6.343933e-01 -8.582140e-17 7.730105e-01
      outer loop
         vertex -4.006657e+01 -3.062500e+01 -1.831470e+00
         vertex -3.991504e+01 -3.062500e+01 -1.707107e+00
         vertex -3.991504e+01 -2.882500e+01 -1.707107e+00
      endloop
   endfacet
   facet normal -4.713967e-01 -9.791293e-17 8.819213e-01
      outer loop
         vertex -4.023946e+01 -3.062500e+01 -1.923880e+00
         vertex -4.006657e+01 -2.882500e+01 -1.831470e+00
         vertex -4.023946e+01 -2.882500e+01 -1.923880e+00
      endloop
   endfacet
   facet normal -4.713967e-01 -9.791293e-17 8.819213e-01
      outer loop
         vertex -4.023946e+01 -3.062500e+01 -1.923880e+00
         vertex -4.006657e+01 -3.062500e+01 -1.831470e+00
         vertex -4.006657e+01 -2.882500e+01 -1.831470e+00
      endloop
   endfacet
   facet normal -2.902847e-01 0.000000e+00 9.569403e-01
      outer loop
         vertex -4.042705e+01 -3.062500e+01 -1.980785e+00
         vertex -4.023946e+01 -2.882500e+01 -1.923880e+00
         vertex -4.042705e+01 -2.882500e+01 -1.980785e+00
      endloop
   endfacet
   facet normal -2.902847e-01 0.000000e+00 9.569403e-01
      outer loop
         vertex -4.042705e+01 -3.062500e+01 -1.980785e+00
         vertex -4.023946e+01 -3.062500e+01 -1.923880e+00
         vertex -4.023946e+01 -2.882500e+01 -1.923880e+00
      endloop
   endfacet
   facet normal -9.801714e-02 -1.104877e-16 9.951847e-01
      outer loop
         vertex -4.062214e+01 -3.062500e+01 -2.000000e+00
         vertex -4.042705e+01 -2.882500e+01 -1.980785e+00
         vertex -4.062214e+01 -2.882500e+01 -2.000000e+00
      endloop
   endfacet
   facet normal -9.801714e-02 -1.104877e-16 9.951847e-01
      outer loop
         vertex -4.062214e+01 -3.062500e+01 -2.000000e+00
         vertex -4.042705e+01 -3.062500e+01 -1.980785e+00
         vertex -4.042705e+01 -2.882500e+01 -1.980785e+00
      endloop
   endfacet
endsolid
