solid würfel
   facet normal 1.224647e-16 1.000000e+00 6.123234e-17
      outer loop
         vertex -5.462214e+01 -1.762500e+01 8.000000e+00
         vertex -6.462214e+01 -1.762500e+01 8.000000e+00
         vertex -6.462214e+01 -1.762500e+01 1.800000e+01
      endloop
   endfacet
   facet normal 1.224647e-16 1.000000e+00 6.123234e-17
      outer loop
         vertex -5.462214e+01 -1.762500e+01 8.000000e+00
         vertex -6.462214e+01 -1.762500e+01 1.800000e+01
         vertex -5.462214e+01 -1.762500e+01 1.800000e+01
      endloop
   endfacet
   facet normal -1.224647e-16 -1.000000e+00 -6.123234e-17
      outer loop
         vertex -5.462214e+01 -2.762500e+01 1.800000e+01
         vertex -6.462214e+01 -2.762500e+01 1.800000e+01
         vertex -6.462214e+01 -2.762500e+01 8.000000e+00
      endloop
   endfacet
   facet normal -1.224647e-16 -1.000000e+00 -6.123234e-17
      outer loop
         vertex -5.462214e+01 -2.762500e+01 1.800000e+01
         vertex -6.462214e+01 -2.762500e+01 8.000000e+00
         vertex -5.462214e+01 -2.762500e+01 8.000000e+00
      endloop
   endfacet
   facet normal 1.000000e+00 -1.224647e-16 -1.224647e-16
      outer loop
         vertex -5.462214e+01 -1.762500e+01 1.800000e+01
         vertex -5.462214e+01 -2.762500e+01 1.800000e+01
         vertex -5.462214e+01 -2.762500e+01 8.000000e+00
      endloop
   endfacet
   facet normal 1.000000e+00 -1.224647e-16 -1.224647e-16
      outer loop
         vertex -5.462214e+01 -1.762500e+01 1.800000e+01
         vertex -5.462214e+01 -2.762500e+01 8.000000e+00
         vertex -5.462214e+01 -1.762500e+01 8.000000e+00
      endloop
   endfacet
   facet normal -6.123234e-17 6.123234e-17 -1.000000e+00
      outer loop
         vertex -5.462214e+01 -1.762500e+01 8.000000e+00
         vertex -5.462214e+01 -2.762500e+01 8.000000e+00
         vertex -6.462214e+01 -2.762500e+01 8.000000e+00
      endloop
   endfacet
   facet normal -6.123234e-17 6.123234e-17 -1.000000e+00
      outer loop
         vertex -5.462214e+01 -1.762500e+01 8.000000e+00
         vertex -6.462214e+01 -2.762500e+01 8.000000e+00
         vertex -6.462214e+01 -1.762500e+01 8.000000e+00
      endloop
   endfacet
   facet normal -1.000000e+00 1.224647e-16 2.449294e-16
      outer loop
         vertex -6.462214e+01 -1.762500e+01 8.000000e+00
         vertex -6.462214e+01 -2.762500e+01 8.000000e+00
         vertex -6.462214e+01 -2.762500e+01 1.800000e+01
      endloop
   endfacet
   facet normal -1.000000e+00 1.224647e-16 2.449294e-16
      outer loop
         vertex -6.462214e+01 -1.762500e+01 8.000000e+00
         vertex -6.462214e+01 -2.762500e+01 1.800000e+01
         vertex -6.462214e+01 -1.762500e+01 1.800000e+01
      endloop
   endfacet
   facet normal 1.836970e-16 -6.123234e-17 1.000000e+00
      outer loop
         vertex -6.462214e+01 -1.762500e+01 1.800000e+01
         vertex -6.462214e+01 -2.762500e+01 1.800000e+01
         vertex -5.462214e+01 -2.762500e+01 1.800000e+01
      endloop
   endfacet
   facet normal 1.836970e-16 -6.123234e-17 1.000000e+00
      outer loop
         vertex -6.462214e+01 -1.762500e+01 1.800000e+01
         vertex -5.462214e+01 -2.762500e+01 1.800000e+01
         vertex -5.462214e+01 -1.762500e+01 1.800000e+01
      endloop
   endfacet
endsolid
